<?xml version="1.0" encoding="UTF-8" standalone="no"?>
<!-- Created with Inkscape (http://www.inkscape.org/) -->

<svg
   xmlns:dc="http://purl.org/dc/elements/1.1/"
   xmlns:cc="http://creativecommons.org/ns#"
   xmlns:rdf="http://www.w3.org/1999/02/22-rdf-syntax-ns#"
   xmlns:svg="http://www.w3.org/2000/svg"
   xmlns="http://www.w3.org/2000/svg"
   xmlns:sodipodi="http://sodipodi.sourceforge.net/DTD/sodipodi-0.dtd"
   xmlns:inkscape="http://www.inkscape.org/namespaces/inkscape"
   id="svg3390"
   version="1.1"
   inkscape:version="0.91 r13725"
   width="54"
   height="54"
   viewBox="0 0 54 54"
   sodipodi:docname="600px-FHBbuttoncolour_large_logo_all_legal.svg">
  <metadata
     id="metadata3396">
    <rdf:RDF>
      <cc:Work
         rdf:about="">
        <dc:format>image/svg+xml</dc:format>
        <dc:type
           rdf:resource="http://purl.org/dc/dcmitype/StillImage" />
        <dc:title></dc:title>
      </cc:Work>
    </rdf:RDF>
  </metadata>
  <defs
     id="defs3394" />
  <sodipodi:namedview
     pagecolor="#ffffff"
     bordercolor="#666666"
     borderopacity="1"
     objecttolerance="10"
     gridtolerance="10"
     guidetolerance="10"
     inkscape:pageopacity="0"
     inkscape:pageshadow="2"
     inkscape:window-width="1364"
     inkscape:window-height="752"
     id="namedview3392"
     showgrid="false"
     inkscape:zoom="10.407407"
     inkscape:cx="27"
     inkscape:cy="27"
     inkscape:window-x="0"
     inkscape:window-y="14"
     inkscape:window-maximized="0"
     inkscape:current-layer="svg3390" />
  <g
     id="g3400"
     transform="translate(1.4234875e-8,0.38434164)">
    <path
       style="fill:#d0d0d0"
       d="M 23.805,53.892971 C 21.392596,53.703557 18.675529,52.985687 16.11,51.859894 9.2741814,48.860232 3.8861898,43.064528 1.4076416,36.045 0.37263438,33.113742 -0.00301475,30.705115 -0.00301475,27 c 0,-3.705115 0.37564913,-6.113742 1.41065635,-9.045 C 4.1165151,10.283164 10.283164,4.1165151 17.955,1.4076416 20.886258,0.37263438 23.294885,-0.00301475 27,-0.00301475 c 3.705115,0 6.113742,0.37564913 9.045,1.41065635 7.671836,2.7088735 13.838485,8.8755224 16.547359,16.5473584 1.035007,2.931258 1.410656,5.339885 1.410656,9.045 0,3.705115 -0.375649,6.113742 -1.410656,9.045 -2.478549,7.019528 -7.86654,12.815232 -14.702359,15.814894 -2.682087,1.17694 -5.264503,1.840578 -7.965,2.046869 -1.43105,0.109318 -4.644277,0.102077 -6.12,-0.01379 z m 2.506473,-1.859596 c 0.311642,-0.153421 0.628796,-0.350819 0.704785,-0.438661 0.07599,-0.08784 2.600825,-5.039964 5.610745,-11.004714 3.00992,-5.96475 5.658595,-11.187506 5.885945,-11.606125 0.390351,-0.718755 0.580805,-0.922388 3.421278,-3.658037 2.99179,-2.881383 3.010356,-2.897236 3.463263,-2.957316 0.935887,-0.12415 1.278016,-0.458891 1.254114,-1.227032 -0.02918,-0.93777 -0.695307,-1.908652 -2.686603,-3.915735 -2.212799,-2.23034 -3.258551,-2.948621 -4.304693,-2.956702 -0.48117,-0.0037 -0.546494,0.02033 -0.7875,0.289867 C 38.663602,14.792891 38.61,14.936739 38.61,15.26419 l 0,0.41135 -2.332593,2.399731 c -1.282926,1.31985 -2.670051,2.731588 -3.0825,3.137193 L 32.445,21.949929 20.7,27.724333 c -7.948983,3.9081 -11.8096879,5.851368 -11.9451466,6.012535 -0.650246,0.773654 -0.7916027,2.342012 -0.3459321,3.838132 0.5102921,1.713054 1.8244387,3.993904 3.5261327,6.12 1.023119,1.278286 3.583625,3.837229 4.849946,4.846987 2.536793,2.022825 4.88721,3.305725 6.795,3.708833 0.335221,0.07083 0.922277,0.110349 1.374925,0.09256 0.66366,-0.02609 0.880497,-0.07564 1.356548,-0.31 z M 23.985,51.712059 C 20.532193,51.044391 15.731969,47.555069 12.09418,43.068523 11.385205,42.194131 10.227124,40.404107 9.7847028,39.498807 8.7095104,37.298704 8.4841083,35.558212 9.1109124,34.295983 L 9.315,33.885 l 8.73,-4.382677 c 4.8015,-2.410472 8.817885,-4.384847 8.9253,-4.3875 0.12223,-0.003 0.39342,0.193297 0.724829,0.524706 0.824088,0.824088 1.273407,1.00961 2.679375,1.106302 1.875813,0.129004 3.155783,0.504747 4.224708,1.240186 0.371907,0.255879 0.770788,0.761879 0.770788,0.977782 0,0.05365 -0.17956,0.221094 -0.399021,0.372087 -0.535839,0.368667 -0.768185,0.718924 -0.831493,1.253452 -0.100489,0.848469 0.494252,1.601384 1.548794,1.960703 0.23202,0.07906 0.40172,0.192917 0.40172,0.269536 0,0.199623 -9.142172,18.225208 -9.357489,18.450124 -0.424784,0.443721 -1.688371,0.647163 -2.747511,0.442358 z M 21.375,44.19 c 0.245138,-0.06238 0.232113,-0.06968 -0.141467,-0.07935 -0.946204,-0.02449 -1.714797,-0.502824 -2.111813,-1.314294 -0.554822,-1.134016 -0.144953,-2.457656 0.944658,-3.050696 1.61704,-0.880104 3.466447,0.241776 3.452475,2.094328 -0.0029,0.380982 0.02123,0.530266 0.067,0.415014 0.121866,-0.306833 0.09102,-1.162737 -0.05762,-1.598975 -0.175097,-0.513882 -0.732717,-1.160736 -1.27413,-1.478025 -0.318161,-0.186455 -0.561271,-0.248023 -1.103237,-0.279397 -0.615288,-0.03562 -0.758787,-0.01168 -1.249073,0.208346 -1.709386,0.767126 -2.137155,2.958877 -0.83986,4.303177 0.631864,0.654758 1.566432,0.969859 2.313059,0.779874 z m 3.810532,-5.91652 c 0.702626,-0.331081 1.01755,-1.367794 0.647627,-2.131953 -0.750596,-1.550527 -3.092668,-0.988739 -3.053298,0.732387 l 0.0099,0.431086 0.07744,-0.394177 c 0.146726,-0.746858 0.632694,-1.179885 1.324808,-1.180486 0.7721,-6.3e-4 1.277071,0.500805 1.277694,1.268854 6.3e-4,0.792269 -0.658406,1.397956 -1.417163,1.302416 -0.455014,-0.05729 -0.497104,-9.36e-4 -0.09,0.120499 0.346408,0.103335 0.807137,0.04734 1.223032,-0.148626 z M 20.879014,34.0875 c -0.246528,-0.404333 -0.223915,-0.666446 0.08406,-0.974423 0.339761,-0.339761 0.704574,-0.345991 1.093568,-0.01867 0.255121,0.214671 0.277774,0.220706 0.186209,0.04962 -0.287777,-0.537716 -1.026286,-0.644432 -1.459777,-0.210941 -0.434555,0.434554 -0.289867,1.257644 0.2531,1.439817 0.01165,0.0039 -0.05908,-0.124519 -0.157163,-0.285394 z M 35.55,32.122437 c -0.714482,-0.323915 -1.08,-0.794886 -1.08,-1.391582 0,-0.452982 0.23875,-0.81568 0.740225,-1.124515 0.256133,-0.157741 0.447143,-0.349203 0.480342,-0.481481 0.135718,-0.54074 -0.615075,-1.373972 -1.712531,-1.900574 -0.95015,-0.455917 -1.871279,-0.671652 -3.408817,-0.798372 -1.211552,-0.09985 -1.43407,-0.143372 -1.78523,-0.349166 C 28.28045,25.781653 27.63,25.138213 27.63,24.935195 c 0,-0.111769 0.706386,-0.501098 2.592494,-1.428867 l 2.592494,-1.275238 3.129114,-3.197214 C 38.616746,16.303065 39.07086,15.800801 39.057071,15.590831 39.011944,14.903695 39.158716,14.67 39.635396,14.67 c 0.807719,0 1.690755,0.584834 3.461822,2.292764 2.410789,2.324846 3.376194,3.733052 3.117658,4.547627 C 46.137561,21.753986 45.663311,21.96 45.17986,21.96 c -0.358254,0 -0.432065,0.06359 -3.522348,3.034682 l -3.156426,3.034682 -0.99006,1.982818 c -0.544533,1.09055 -1.052805,2.053693 -1.129492,2.140318 -0.178571,0.201711 -0.332577,0.196143 -0.831534,-0.03006 z m 9.614412,-11.364611 c 0.03536,-0.30915 -0.117398,-0.707381 -0.353188,-0.920768 -0.244407,-0.221185 -0.331523,-0.07541 -0.147034,0.246046 C 44.871612,20.444516 44.866087,20.7 44.65085,20.7 c -0.335922,0 -3.232368,-2.753234 -3.932667,-3.738219 -0.174087,-0.244858 -0.360366,-0.619313 -0.413952,-0.832122 -0.116291,-0.461834 -0.303549,-0.453365 -0.288886,0.01307 0.01616,0.514153 0.548063,1.21993 2.050112,2.72029 1.760444,1.758464 2.332313,2.21042 2.754544,2.176953 0.272485,-0.0216 0.31897,-0.05968 0.344412,-0.282141 z M 33.43087,49.540927 c 0.401215,-0.190388 0.545989,-0.503955 0.534436,-1.157539 -0.0081,-0.458279 -0.1391,-0.888523 -0.797233,-2.618388 -0.433147,-1.1385 -0.818259,-2.151 -0.855803,-2.25 -0.0542,-0.142912 -0.216459,0.116702 -0.787507,1.26 l -0.719243,1.44 0.388135,1.155089 c 0.492118,1.464537 0.728311,1.872676 1.226426,2.119238 0.459084,0.227242 0.623017,0.235611 1.010789,0.0516 z m 7.850676,-4.238549 c 0.362378,-0.553059 0.0069,-1.53488 -0.916921,-2.532726 -0.847602,-0.915488 -5.411829,-4.569024 -5.556882,-4.448129 -0.136968,0.114158 -1.200391,2.249033 -1.143258,2.295149 0.02228,0.01799 0.891015,0.78099 1.930515,1.695561 2.389909,2.102687 2.825059,2.454091 3.399246,2.745054 0.735746,0.37283 1.063979,0.469578 1.61618,0.476372 0.461197,0.0057 0.531805,-0.01866 0.671121,-0.231281 z M 19.314239,26.825838 c 0.415668,-0.194789 0.755761,-0.396 0.755761,-0.447135 0,-0.05114 -0.38475,-0.402433 -0.855,-0.780663 -0.47025,-0.378228 -0.856424,-0.713643 -0.858164,-0.745364 -0.0017,-0.03172 -0.01187,-0.504175 -0.0225,-1.049896 C 18.316101,22.867064 18.297061,22.774822 18,22.183009 l -0.315,-0.62755 -3.87,-3.079272 C 11.6865,16.782588 9.911718,15.39536 9.8710398,15.393458 c -0.040677,-0.0019 0.7085732,0.754538 1.6650002,1.680978 2.989043,2.895323 3.04396,2.952327 3.04396,3.159596 0,0.249048 -0.302868,0.555968 -0.548627,0.555968 -0.110079,0 -1.262519,-0.849216 -2.7675,-2.039332 C 9.8454924,17.629035 8.62425,16.668386 8.55,16.615892 c -0.3121012,-0.220655 0.4504113,0.539654 2.636144,2.628529 1.27663,1.220056 2.343199,2.306154 2.370154,2.413549 0.108038,0.430457 -0.317377,0.769354 -0.705399,0.561939 C 12.699591,22.139028 8.9233998,19.275057 7.4925,18.155947 7.430625,18.107554 7.38,18.089981 7.38,18.116896 c 0,0.02692 1.0935,1.088063 2.43,2.358104 2.557864,2.430672 2.665704,2.5697 2.229974,2.874897 C 11.929961,23.426953 11.789255,23.49 11.727296,23.49 11.644984,23.49 7.1517736,20.193548 6.0525,19.326676 5.990625,19.277882 5.94,19.258051 5.94,19.282607 c 0,0.122653 7.5358,6.802753 7.885535,6.990122 0.554606,0.29713 1.572915,0.357587 2.376716,0.141108 1.044425,-0.281283 0.990364,-0.290039 1.624649,0.26314 0.317227,0.276663 0.611605,0.503023 0.654176,0.503023 0.04257,0 0.417493,-0.159373 0.833162,-0.354162 z m 4.559645,-2.266089 c 0.605614,-0.302638 1.109202,-0.5571 1.119085,-0.565469 0.0099,-0.0084 -1.593326,-4.327133 -3.562687,-9.597249 C 17.533103,3.9679723 17.735423,4.4268726 17.128626,4.6400438 16.703691,4.789326 16.622704,5.2073972 16.685025,6.93 c 0.12627,3.490232 1.015131,7.938946 2.355661,11.79 0.478932,1.375866 1.013388,2.633666 1.961921,4.61722 l 0.65407,1.36778 0.534161,0.196538 c 0.293789,0.108096 0.54491,0.199221 0.558046,0.2025 0.01314,0.0033 0.519386,-0.241651 1.125,-0.544289 z m 1.8265,-4.770749 c 0.864227,-0.320965 0.858094,-0.165471 0.08664,-2.196394 C 25.411464,16.603923 25.115622,15.714 25.129595,15.615 c 0.02011,-0.142499 0.266089,-0.267556 1.180666,-0.600261 0.635393,-0.231144 1.177504,-0.442503 1.204689,-0.46969 0.06828,-0.06828 -0.315338,-1.229062 -0.479207,-1.450036 -0.13178,-0.177705 -0.147412,-0.175126 -1.232109,0.203292 -0.604249,0.210803 -1.185575,0.382923 -1.291835,0.382487 -0.160818,-6.3e-4 -0.245879,-0.140328 -0.507492,-0.833292 -0.417224,-1.10515 -0.416871,-1.103908 -0.346778,-1.21732 0.03348,-0.05417 0.708109,-0.327687 1.499173,-0.607806 0.791064,-0.280121 1.476676,-0.545901 1.523582,-0.590626 0.05332,-0.05084 0.0114,-0.310736 -0.111874,-0.6934753 C 26.220138,8.6569229 26.4876,8.6623105 23.638189,9.6792489 22.269685,10.167659 21.15,10.61151 21.15,10.665584 c 0,0.0821 2.072959,5.627699 3.206142,8.577092 l 0.321842,0.837676 0.283508,-0.06111 c 0.155929,-0.03361 0.488431,-0.137219 0.738892,-0.230238 z M 32.07564,17.512957 C 32.353038,17.390279 32.58,17.256706 32.58,17.216129 c 0,-0.04058 -0.323392,-0.923681 -0.718648,-1.962453 -0.395257,-1.038772 -0.698824,-1.951527 -0.674595,-2.028344 0.04994,-0.158333 2.36943,-1.018811 2.616143,-0.97053 0.109907,0.02151 0.355455,0.561096 0.853341,1.875198 0.384466,1.01475 0.733061,1.899295 0.774656,1.965657 0.144127,0.229945 0.746666,0.02384 1.217321,-0.416407 0.23748,-0.222134 0.431128,-0.448964 0.430328,-0.504066 -8e-4,-0.0551 -0.761468,-2.104934 -1.690373,-4.555184 L 33.699254,6.165 33.413486,6.187319 c -0.327317,0.025564 -1.179265,0.3283092 -1.393653,0.4952433 -0.129478,0.1008183 -0.07591,0.2919295 0.518365,1.8493507 0.635224,1.664734 0.697035,1.935337 0.462343,2.024075 -1.239368,0.468613 -2.255699,0.791454 -2.418771,0.768331 C 30.403626,11.299059 30.297001,11.089408 29.811613,9.81 29.50175,8.99325 29.190009,8.1964776 29.118856,8.0393947 L 28.989488,7.7537893 28.55678,7.8679355 C 27.969482,8.0228618 27.27,8.3396228 27.27,8.4506548 c 0,0.049927 0.754456,2.0873292 1.67657,4.5275602 0.922114,2.440232 1.712901,4.533273 1.757304,4.651203 0.07299,0.193841 0.118478,0.209243 0.474069,0.160504 0.216335,-0.02965 0.620298,-0.154286 0.897697,-0.276965 z m 10.551584,-3.90956 c 1.138957,-0.825057 1.422807,-2.082541 0.77808,-3.446982 C 42.964723,9.2240082 42.543981,8.8715416 41.589787,8.6355098 40.92492,8.4710468 40.93654,8.5010233 41.225208,7.695 41.470073,7.0112848 41.418313,6.4698221 41.033336,5.687823 40.544843,4.6955513 39.883487,4.3585005 38.573681,4.4342919 c -0.899712,0.052061 -1.733472,0.2975488 -3.011903,0.8868079 -0.595877,0.2746534 -0.744094,0.3802588 -0.709525,0.5055389 0.06728,0.2438297 2.86911,7.6233773 2.910327,7.6653103 0.01997,0.02032 0.108168,-0.02808 0.195987,-0.107552 0.240252,-0.217426 0.933801,-0.510183 1.213933,-0.512421 0.137111,-0.0011 0.247365,-0.05215 0.247197,-0.114476 C 39.419517,12.69562 39.242085,12.17925 39.025376,11.61 38.745958,10.876027 38.654859,10.530111 38.712155,10.420661 38.803052,10.247025 39.832081,9.9 40.256065,9.9 c 0.788719,0 1.446276,0.71179 1.454593,1.574562 0.0054,0.555986 -0.237072,0.931982 -0.821898,1.274713 l -0.409477,0.23997 0.55331,0.251167 c 0.30432,0.138141 0.658693,0.334061 0.787495,0.435377 0.305744,0.240499 0.385018,0.233388 0.807136,-0.07239 z M 38.016391,8.7511218 C 37.885929,8.6636415 37.17,6.7545078 37.17,6.4940927 37.17,6.0475248 38.535354,5.8098785 39.030471,6.1702689 39.363655,6.4127902 39.69,7.0619354 39.69,7.4821648 c 0,0.4362749 -0.343089,0.8462432 -0.941322,1.1248168 -0.489219,0.2278101 -0.580664,0.2458099 -0.732287,0.1441402 z"
       id="path3414"
       inkscape:connector-curvature="0" />
    <path
       style="fill:#a0a0a0"
       d="M 23.985,53.863652 C 13.168768,52.829356 3.6275792,44.633084 0.85948723,33.997891 0.43626189,32.371832 0.28530832,31.51687 0.13242512,29.88 -0.10152343,27.37519 0.01293627,24.059901 0.40586154,21.96 2.4343682,11.119102 11.119102,2.4343682 21.96,0.40586154 c 2.774754,-0.51920114 7.305246,-0.51920114 10.08,0 C 42.880898,2.4343682 51.565631,11.119102 53.594139,21.96 c 0.519201,2.774754 0.519201,7.305246 0,10.08 C 51.565631,42.880898 42.880898,51.565631 32.04,53.594139 c -2.05195,0.383952 -5.612426,0.503083 -8.055,0.269513 z m 1.59307,-1.494846 c 0.578929,-0.122836 1.219967,-0.436417 1.476766,-0.722397 0.104409,-0.116275 2.610741,-5.010659 5.569625,-10.876409 2.958884,-5.86575 5.595896,-11.073803 5.860027,-11.57345 l 0.480237,-0.908451 2.984866,-2.871549 c 1.641677,-1.579353 3.050239,-2.899078 3.130137,-2.932724 0.0799,-0.03365 0.278197,-0.06402 0.440663,-0.0675 0.454844,-0.0097 0.892562,-0.232962 1.048631,-0.534766 0.326707,-0.631783 0.09869,-1.566732 -0.633326,-2.596822 -0.508487,-0.715542 -3.129033,-3.371765 -4.048464,-4.10358 C 40.09474,13.754435 38.52,13.832392 38.52,15.347852 c 0,0.303666 -0.185611,0.513546 -3.008382,3.401738 l -3.008383,3.078105 -11.774117,5.786446 c -9.039946,4.442725 -11.8318783,5.852695 -12.0228502,6.071729 -0.3061246,0.351108 -0.5633573,1.025991 -0.6441274,1.689949 -0.2343905,1.926773 1.205012,5.099796 3.7815496,8.336059 0.897624,1.127462 3.783628,4.016408 4.89631,4.901303 3.578349,2.84579 6.758044,4.19696 8.83807,3.755625 z M 23.445,51.488488 C 18.278167,50.085549 11.060182,43.203879 9.2476404,37.952641 8.9870457,37.197653 8.9616625,37.025686 8.9584842,35.993647 8.9553504,34.976134 8.9772652,34.81466 9.1762731,34.388913 L 9.3975453,33.915532 18.167603,29.557766 C 22.991135,27.160995 26.9779,25.2 27.027082,25.2 c 0.04918,0 0.320673,0.233416 0.603317,0.518701 0.82452,0.83223 1.252345,1.018397 2.551733,1.110386 1.327781,0.094 2.065957,0.221677 2.883342,0.498715 1.004772,0.340551 1.823591,0.887275 2.0845,1.391817 0.132809,0.256824 0.131172,0.259857 -0.312189,0.57838 -1.327766,0.953904 -0.999937,2.598961 0.654583,3.284722 C 35.771566,32.698442 36,32.816803 36,32.845746 c 0,0.02894 -2.079606,4.162616 -4.621346,9.185939 -4.621056,9.132742 -4.621371,9.133329 -5.0175,9.35649 -0.544054,0.306494 -1.975475,0.355734 -2.916154,0.100313 z m -1.344492,-7.381202 c 0.525217,-0.231796 1.043239,-0.708276 1.368761,-1.258996 0.187059,-0.316465 0.242329,-0.54606 0.273244,-1.135053 0.03468,-0.660698 0.01247,-0.796916 -0.21121,-1.295333 -0.634581,-1.414036 -2.287367,-2.054935 -3.668619,-1.422577 -2.327729,1.06567 -2.178271,4.350205 0.237236,5.213593 0.587665,0.210053 1.38628,0.169481 2.000588,-0.101634 z m -1.297299,-0.202101 c -1.664784,-0.293069 -2.364503,-2.279049 -1.24934,-3.545941 0.475648,-0.540365 0.942649,-0.755291 1.641131,-0.755291 1.164694,0 2.073402,0.826575 2.185601,1.988055 0.134836,1.395795 -1.164473,2.561908 -2.577392,2.313177 z M 25.065,38.439373 C 25.745929,38.124112 26.1,37.582102 26.1,36.855 c 0,-0.727102 -0.354071,-1.269113 -1.035,-1.584373 -0.490892,-0.227275 -0.916382,-0.212125 -1.445332,0.05146 -0.905534,0.451247 -1.231413,1.521072 -0.734481,2.411216 0.422026,0.755965 1.392842,1.070424 2.179813,0.706069 z m -1.35,-0.365236 c -0.616061,-0.254819 -0.864878,-1.143404 -0.47909,-1.710941 0.41587,-0.611789 1.258111,-0.695329 1.777167,-0.176273 0.892657,0.892658 -0.125133,2.372376 -1.298077,1.887214 z m -1.638653,-3.695545 c 0.267432,-0.210361 0.463716,-0.726713 0.389166,-1.023749 -0.08727,-0.347707 -0.408538,-0.675528 -0.767393,-0.783044 -0.850067,-0.254685 -1.585502,0.729068 -1.142524,1.528295 0.259543,0.468271 1.086878,0.619784 1.520751,0.278498 z M 21.075688,34.081699 C 20.672556,33.652585 20.934575,33 21.51,33 c 0.585275,0 0.85141,0.69062 0.421699,1.094312 -0.270234,0.253872 -0.61037,0.248861 -0.856011,-0.01261 z M 35.455934,31.972055 C 34.851189,31.656133 34.56,31.251994 34.56,30.728596 c 0,-0.431499 0.280774,-0.846464 0.729873,-1.078702 0.716648,-0.370593 0.661384,-0.997361 -0.15362,-1.742229 C 34.1437,27.000527 32.725087,26.512007 30.64852,26.362247 29.776866,26.299385 29.274716,26.219733 29.008969,26.102182 28.574547,25.910015 27.72,25.150972 27.72,24.957265 c 0,-0.07822 0.986347,-0.613942 2.5328,-1.375668 2.266166,-1.11623 2.589042,-1.302782 3.067053,-1.772081 0.293839,-0.288484 1.713546,-1.73257 3.154903,-3.209079 l 2.620651,-2.684563 0.0099,-0.435218 c 0.0054,-0.239369 0.06317,-0.49944 0.128318,-0.577937 0.149907,-0.180626 0.591235,-0.182425 1.095626,-0.0045 1.167299,0.411848 4.811534,3.962218 5.528744,5.38634 0.538399,1.069067 0.376465,1.502484 -0.59234,1.585408 l -0.52574,0.045 -3.155757,3.042235 -3.155755,3.042235 -1.056686,2.087765 c -0.814139,1.608547 -1.099082,2.093831 -1.24139,2.114192 -0.101588,0.01453 -0.405051,-0.08868 -0.674362,-0.229372 z m 9.724698,-10.957816 c 0.148613,-0.179068 0.06321,-0.684694 -0.182913,-1.08293 -0.204657,-0.331141 -0.362304,-0.387671 -0.52716,-0.189032 -0.07748,0.09336 -0.0588,0.176534 0.07898,0.351695 0.206234,0.262185 0.236574,0.516028 0.06168,0.516028 -0.172629,0 -1.758237,-1.433911 -2.834984,-2.563759 -0.976992,-1.025171 -1.453978,-1.726121 -1.455387,-2.138741 -9.36e-4,-0.273772 -0.180123,-0.330256 -0.360025,-0.113486 -0.346776,0.41784 0.370647,1.483572 2.216203,3.292171 1.688006,1.654202 2.203053,2.063815 2.595039,2.063815 0.162745,0 0.346601,-0.06109 0.408571,-0.135761 z M 33.419495,49.647279 C 33.886179,49.452286 34.064932,49.104355 34.050019,48.42 34.039069,47.917507 33.9179,47.518475 33.190907,45.590757 32.725407,44.356423 32.305876,43.333626 32.258617,43.317872 32.155152,43.283384 30.78,46.010014 30.78,46.24965 c 0,0.323158 0.825861,2.577955 1.053991,2.877646 0.228307,0.299924 0.823397,0.636931 1.1314,0.640728 0.08821,0.0011 0.292561,-0.05325 0.454104,-0.120745 z m 7.883973,-4.254416 C 41.760916,44.811311 41.402047,43.76256 40.374735,42.678747 39.713465,41.981107 35.050586,38.16 34.860531,38.16 c -0.164479,0 -1.330063,2.349244 -1.234679,2.488505 0.10758,0.157067 4.128621,3.680883 4.579148,4.01291 0.81404,0.599929 1.711416,0.953073 2.445968,0.962564 0.399969,0.0052 0.492388,-0.02757 0.6525,-0.231116 z M 19.415208,26.866861 c 0.468068,-0.221726 0.837253,-0.441696 0.820413,-0.488822 -0.01684,-0.04713 -0.415371,-0.397132 -0.885621,-0.77779 -0.47025,-0.380658 -0.880358,-0.732086 -0.911352,-0.780951 -0.03099,-0.04886 -0.03565,-0.346701 -0.01036,-0.661861 C 18.512468,23.108791 18.151727,21.937922 17.580892,21.407 17.237232,21.087369 9.3994596,14.861134 9,14.590439 c -0.3195479,-0.216542 0.8740809,0.989504 3.8475,3.887524 0.979638,0.954796 1.6425,1.669119 1.6425,1.770015 0,0.220829 -0.23587,0.452022 -0.461166,0.452022 -0.09807,0 -1.441803,-1.002654 -2.986073,-2.228119 -3.7263382,-2.957064 -3.6051352,-2.863831 -3.5638764,-2.74144 0.019864,0.05892 1.3523654,1.367076 2.9611154,2.907005 1.60875,1.539928 2.963501,2.898099 3.010557,3.018155 0.06874,0.175382 0.04738,0.256462 -0.108684,0.412527 -0.161194,0.161193 -0.230397,0.177769 -0.406737,0.09742 -0.116873,-0.05325 -1.525965,-1.105132 -3.1313163,-2.337515 -3.2141768,-2.467433 -3.6222156,-2.767248 -3.414217,-2.508664 0.074032,0.09203 1.4004065,1.361048 2.9475004,2.820027 2.9051419,2.739681 3.0694849,2.936948 2.6388139,3.167436 -0.09575,0.05124 -0.217984,0.09317 -0.27164,0.09317 -0.05366,0 -1.483944,-1.044729 -3.1784171,-2.321621 C 6.831387,19.801488 5.30325,18.660296 5.13,18.542398 L 4.815,18.328037 5.04,18.577366 c 0.6340009,0.702556 8.508889,7.677526 8.832124,7.822816 0.594792,0.267352 1.530433,0.294973 2.414967,0.07129 C 16.70354,26.366163 17.0922,26.28 17.150781,26.28 c 0.05858,0 0.35615,0.22275 0.661267,0.495 0.305116,0.27225 0.599164,0.495 0.653441,0.495 0.05428,0 0.48165,-0.181412 0.949719,-0.403139 z m 4.533946,-2.256448 c 0.960948,-0.481532 1.165424,-0.617612 1.115693,-0.7425 C 25.031356,23.78381 23.424387,19.48275 21.493804,14.31 18.855849,7.2419349 17.92853,4.8546832 17.761808,4.7025 17.255005,4.2398917 16.707491,4.5935245 16.60013,5.4528136 c -0.157167,1.2579226 0.174705,4.4586587 0.767379,7.4009624 0.810541,4.023903 1.893311,7.173537 3.716413,10.810552 l 0.561078,1.119329 0.54,0.201829 c 0.297,0.111006 0.550704,0.204683 0.563785,0.208172 0.01308,0.0035 0.553248,-0.258973 1.200369,-0.583245 z m 1.764656,-4.738354 c 0.257845,-0.09473 0.553651,-0.240931 0.657346,-0.324897 l 0.188533,-0.152666 -0.679844,-1.783819 C 25.50593,16.629577 25.2,15.752924 25.2,15.66256 c 0,-0.12363 0.172651,-0.225593 0.6975,-0.411925 1.705856,-0.605615 1.690327,-0.596799 1.66222,-0.943659 C 27.527548,13.909959 27.046254,12.87 26.894686,12.87 c -0.06312,0 -0.602661,0.169918 -1.19897,0.377595 -0.596308,0.207678 -1.147316,0.353374 -1.224462,0.323771 -0.07715,-0.0296 -0.290096,-0.450093 -0.473221,-0.93442 -0.267417,-0.707259 -0.310326,-0.901277 -0.217995,-0.985668 0.06323,-0.05779 0.773087,-0.338497 1.577462,-0.623791 1.166206,-0.413628 1.4625,-0.551991 1.4625,-0.682954 0,-0.246548 -0.450466,-1.4128802 -0.590612,-1.5291907 -0.09402,-0.078034 -0.697522,0.103192 -2.611053,0.7840829 -1.368819,0.4870668 -2.508334,0.9351208 -2.532257,0.9956768 -0.03672,0.09294 2.901229,8.030983 3.398071,9.18126 0.156366,0.362014 0.179847,0.378485 0.462787,0.324646 0.163935,-0.0312 0.509028,-0.134222 0.766874,-0.228949 z m 6.109835,-2.180512 c 0.981046,-0.356102 0.973197,-0.199893 0.122641,-2.440882 -0.673377,-1.774163 -0.729234,-1.968612 -0.593933,-2.067547 0.30764,-0.224951 2.332434,-0.881562 2.463513,-0.79888 0.07066,0.04457 0.448231,0.927088 0.839055,1.961154 0.390825,1.034065 0.729122,1.89865 0.75177,1.921299 0.02265,0.02265 0.213443,0.01208 0.423987,-0.0235 0.506423,-0.08556 1.376759,-0.871779 1.300666,-1.174959 C 37.058197,14.776794 33.778382,6.1183824 33.718415,6.0584158 33.54848,5.8884803 31.86,6.5630595 31.86,6.8008873 c 0,0.082965 0.284892,0.9024914 0.633095,1.8211698 0.514199,1.3566344 0.611386,1.6916479 0.5175,1.7838659 -0.06358,0.06245 -0.632071,0.295169 -1.263318,0.517157 -0.935874,0.329115 -1.169107,0.382232 -1.263573,0.287766 C 30.419987,11.14713 30.086939,10.340123 29.743598,9.4174992 29.151742,7.8270674 29.107113,7.74 28.883759,7.74 c -0.430251,0 -1.702414,0.4974567 -1.705605,0.6669464 -10e-4,0.053929 0.796455,2.2141786 1.772156,4.8005536 2.028834,5.378006 1.72345,4.901432 2.873335,4.484047 z M 42.482474,13.801563 C 42.905719,13.519235 43.39598,13.003588 43.579583,12.647647 44.324601,11.203321 43.253938,8.8436988 41.739739,8.5928375 41.054129,8.4792506 41.020731,8.4356081 41.241766,7.9421296 41.3741,7.6466848 41.433696,7.3294413 41.435071,6.9131267 41.438788,5.7870295 40.650988,4.6702236 39.663715,4.4020159 39.104912,4.2502082 37.966703,4.3538131 37.080861,4.6371191 36.216415,4.9135824 34.886137,5.506356 34.793394,5.6564179 c -0.04956,0.080186 2.67438,7.4906041 2.910499,7.9179561 0.05093,0.09218 0.125774,0.06944 0.328532,-0.09984 0.386953,-0.323049 0.802252,-0.514537 1.11593,-0.514537 0.161184,0 0.298593,-0.0555 0.32816,-0.132553 0.02798,-0.0729 -0.130885,-0.607585 -0.353024,-1.188179 C 38.901352,11.058673 38.739648,10.5314 38.76415,10.46755 38.817191,10.329328 39.867556,9.99 40.242371,9.99 c 0.854861,0 1.553274,0.87704 1.390281,1.745864 -0.07155,0.381398 -0.565404,0.900087 -1.010091,1.060889 -0.166409,0.06017 -0.302561,0.136269 -0.302561,0.1691 0,0.03283 0.174804,0.126451 0.388454,0.208045 0.213651,0.08159 0.608526,0.288559 0.8775,0.459923 0.564953,0.359932 0.598886,0.366281 0.89652,0.167742 z M 37.853752,8.2575 C 37.740264,7.997625 37.550424,7.5114683 37.431885,7.1771518 c -0.263054,-0.7418956 -0.2081,-0.8707655 0.447004,-1.0482499 0.92235,-0.2498877 1.622702,0.240226 1.700591,1.1900903 0.03151,0.3842851 0.0024,0.5113889 -0.166036,0.7247842 C 39.219728,8.2892082 38.42983,8.7272323 38.177547,8.7291208 38.112949,8.7296068 37.967241,8.517375 37.853752,8.2575 Z"
       id="path3412"
       inkscape:connector-curvature="0" />
    <path
       style="fill:#989898"
       d="M 24.702817,53.902601 C 19.562347,53.442816 14.560531,51.502097 10.575,48.420966 6.2552811,45.081481 3.1046781,40.65493 1.4032078,35.534731 c -1.87184149,-5.632893 -1.87184149,-11.436569 0,-17.069462 2.683628,-8.075785 8.9900342,-14.3797816 17.0718552,-17.0653311 5.618509,-1.867003 11.431365,-1.867003 17.049874,0 8.081821,2.6855495 14.388227,8.9895461 17.071855,17.0653311 1.871842,5.632893 1.871842,11.436569 0,17.069462 -1.70147,5.120199 -4.852073,9.54675 -9.171792,12.886235 -5.223724,4.038352 -12.158357,6.068731 -18.722183,5.481635 z m 1.462331,-1.627869 C 26.431771,52.174975 26.8014,51.945227 26.986546,51.764179 27.250408,51.506157 28.574285,48.954503 33.11092,39.96 l 5.787744,-11.475 0.913588,-0.9 c 0.502475,-0.495 1.892224,-1.841625 3.088333,-2.9925 2.130033,-2.049481 2.182478,-2.0925 2.550977,-2.0925 0.816887,0 1.347487,-0.503451 1.348101,-1.279124 8.1e-4,-1.052469 -0.62881,-1.975884 -2.872729,-4.213043 -2.280574,-2.273704 -3.183336,-2.886428 -4.281934,-2.906245 -0.743619,-0.01341 -1.066683,0.300427 -1.202828,1.168488 -0.07256,0.462622 -0.0885,0.480973 -3.022198,3.478214 l -2.949256,3.013138 -11.757859,5.780233 C 12.027526,31.811421 8.8908822,33.39391 8.7096357,33.597489 8.1615505,34.213103 8.0545542,34.586455 8.059805,35.865 c 0.00422,1.027747 0.0352,1.263011 0.254799,1.935 0.561684,1.718794 1.843297,3.914112 3.467894,5.940268 0.959311,1.196431 3.824418,4.059913 4.998686,4.995852 2.738218,2.182472 5.252931,3.465708 7.383816,3.767899 0.495967,0.07034 1.510035,-0.04591 2.000148,-0.229287 z M 23.445,51.488488 C 18.278167,50.085549 11.060182,43.203879 9.2476404,37.952641 8.9870457,37.197653 8.9616625,37.025686 8.9584842,35.993647 8.9553504,34.976134 8.9772652,34.81466 9.1762731,34.388913 L 9.3975453,33.915532 18.167603,29.557766 C 22.991135,27.160995 26.9779,25.2 27.027082,25.2 c 0.04918,0 0.320673,0.233416 0.603317,0.518701 0.82452,0.83223 1.252345,1.018397 2.551733,1.110386 1.327781,0.094 2.065957,0.221677 2.883342,0.498715 1.004772,0.340551 1.823591,0.887275 2.0845,1.391817 0.132809,0.256824 0.131172,0.259857 -0.312189,0.57838 -1.327766,0.953904 -0.999937,2.598961 0.654583,3.284722 C 35.771566,32.698442 36,32.816803 36,32.845746 c 0,0.02894 -2.079606,4.162616 -4.621346,9.185939 -4.621056,9.132742 -4.621371,9.133329 -5.0175,9.35649 -0.544054,0.306494 -1.975475,0.355734 -2.916154,0.100313 z m -1.344492,-7.381202 c 0.525217,-0.231796 1.043239,-0.708276 1.368761,-1.258996 0.187059,-0.316465 0.242329,-0.54606 0.273244,-1.135053 0.03468,-0.660698 0.01247,-0.796916 -0.21121,-1.295333 -0.634581,-1.414036 -2.287367,-2.054935 -3.668619,-1.422577 -2.327729,1.06567 -2.178271,4.350205 0.237236,5.213593 0.587665,0.210053 1.38628,0.169481 2.000588,-0.101634 z m -1.297299,-0.202101 c -1.664784,-0.293069 -2.364503,-2.279049 -1.24934,-3.545941 0.475648,-0.540365 0.942649,-0.755291 1.641131,-0.755291 1.164694,0 2.073402,0.826575 2.185601,1.988055 0.134836,1.395795 -1.164473,2.561908 -2.577392,2.313177 z M 25.065,38.439373 C 25.745929,38.124112 26.1,37.582102 26.1,36.855 c 0,-0.727102 -0.354071,-1.269113 -1.035,-1.584373 -0.490892,-0.227275 -0.916382,-0.212125 -1.445332,0.05146 -0.905534,0.451247 -1.231413,1.521072 -0.734481,2.411216 0.422026,0.755965 1.392842,1.070424 2.179813,0.706069 z m -1.35,-0.365236 c -0.616061,-0.254819 -0.864878,-1.143404 -0.47909,-1.710941 0.41587,-0.611789 1.258111,-0.695329 1.777167,-0.176273 0.892657,0.892658 -0.125133,2.372376 -1.298077,1.887214 z m -1.638653,-3.695545 c 0.267432,-0.210361 0.463716,-0.726713 0.389166,-1.023749 -0.08727,-0.347707 -0.408538,-0.675528 -0.767393,-0.783044 -0.850067,-0.254685 -1.585502,0.729068 -1.142524,1.528295 0.259543,0.468271 1.086878,0.619784 1.520751,0.278498 z M 21.075688,34.081699 C 20.672556,33.652585 20.934575,33 21.51,33 c 0.585275,0 0.85141,0.69062 0.421699,1.094312 -0.270234,0.253872 -0.61037,0.248861 -0.856011,-0.01261 z M 35.445179,31.902987 C 34.902435,31.62034 34.65,31.264695 34.65,30.78269 c 0,-0.500401 0.09705,-0.655735 0.677724,-1.084702 C 35.761895,29.377247 35.82,29.296949 35.82,29.017692 c 0,-0.404332 -0.167405,-0.719487 -0.600082,-1.129711 -1.007185,-0.954917 -2.507875,-1.470634 -4.670882,-1.605166 -0.932435,-0.05799 -1.258,-0.114136 -1.562402,-0.26943 C 28.555515,25.793444 27.81,25.141702 27.81,24.984752 c 0,-0.05628 1.139048,-0.668744 2.531218,-1.361037 L 32.872436,22.365 35.988718,19.189119 39.105,16.013236 39.15077,15.525348 c 0.05484,-0.584587 0.159534,-0.708637 0.58457,-0.692659 0.783914,0.02947 1.848704,0.808287 3.825384,2.797986 C 45.41188,19.494024 46.08,20.43992 46.08,21.197358 46.08,21.593897 45.814672,21.78 45.249322,21.78 c -0.488559,0 -0.209801,-0.240501 -4.694238,4.05 l -2.116531,2.025 -1.086254,2.1375 c -1.213163,2.387228 -1.137403,2.311335 -1.90712,1.910487 z m 9.788786,-10.889038 c 0.185272,-0.282761 0.118365,-0.675685 -0.195927,-1.150612 -0.236322,-0.357108 -0.440109,-0.405282 -0.605214,-0.14307 -0.09284,0.147439 -0.0619,0.272163 0.13592,0.547917 0.21978,0.306368 -0.02449,0.268957 -0.443958,-0.06799 C 43.447539,19.656172 41.09933,17.27758 40.797644,16.83 40.530812,16.434128 40.484247,16.323453 40.37165,15.8175 c -0.06834,-0.30709 -0.271016,-0.318444 -0.462685,-0.02592 -0.27302,0.416682 0.117587,1.147854 1.325436,2.48106 0.733719,0.809868 2.564979,2.480844 3.02957,2.764401 0.44483,0.271496 0.782236,0.263464 0.969994,-0.02309 z m -11.48434,28.500273 c 0.342323,-0.342324 0.474417,-0.856291 0.364717,-1.419087 -0.116745,-0.598946 -1.736845,-4.918144 -1.849342,-4.930361 -0.11796,-0.01281 -1.565833,2.811987 -1.571012,3.065045 -0.0057,0.279554 0.795705,2.508267 1.023508,2.846304 0.317608,0.471298 0.730683,0.693877 1.287737,0.693877 0.416866,0 0.526171,-0.03756 0.744392,-0.255778 z m 7.567298,-4.057299 c 0.598669,-0.598669 0.154624,-1.819009 -1.112817,-3.058282 -0.829166,-0.81074 -5.177373,-4.32796 -5.351005,-4.328374 -0.06155,-1.8e-4 -0.398854,0.572549 -0.749576,1.272658 -0.615504,1.228665 -0.631953,1.278426 -0.473101,1.431149 0.452554,0.435092 4.262253,3.747615 4.574576,3.977581 0.800896,0.589709 1.711323,0.952581 2.414423,0.962324 0.364501,0.005 0.476767,-0.03632 0.6975,-0.257056 z M 19.441635,26.909179 C 19.935736,26.661228 20.34,26.426219 20.34,26.386938 c 0,-0.05939 -1.432965,-1.271039 -1.743372,-1.474122 -0.05549,-0.0363 -0.100905,-0.467066 -0.109123,-1.035 -0.0151,-1.043301 -0.199913,-1.732344 -0.601634,-2.24305 C 17.631686,21.311622 8.4934229,14.017302 8.1,13.823514 c -0.07425,-0.03657 1.3142682,1.364049 3.085595,3.112494 1.771328,1.748446 3.219203,3.241767 3.2175,3.318492 -0.0042,0.190648 -0.184138,0.3555 -0.387967,0.3555 -0.09288,0 -1.613654,-1.146256 -3.3795,-2.547236 -3.7558457,-2.979798 -3.8763567,-3.072036 -3.9359155,-3.012476 -0.024964,0.02496 1.4442638,1.474971 3.2649498,3.222239 1.8206857,1.747268 3.3476797,3.269071 3.3933207,3.381784 0.100963,0.249337 -0.07644,0.507607 -0.32114,0.467532 C 12.946694,22.10708 11.363649,20.937225 9.518967,19.522165 7.6742853,18.107106 6.0435,16.871856 5.895,16.777165 L 5.625,16.605 5.76,16.801221 c 0.07425,0.107921 1.5239615,1.503892 3.2215812,3.102157 2.6458028,2.490953 3.0827858,2.938472 3.0599998,3.133778 -0.06043,0.518013 -0.297707,0.374415 -4.0762046,-2.466911 -3.5968674,-2.704746 -4.099203,-3.064872 -3.9592218,-2.838377 0.078892,0.12765 9.0423914,8.199216 9.4533234,8.512649 0.630918,0.481225 2.038688,0.603366 3.008893,0.261058 0.603394,-0.21289 0.744603,-0.175117 1.343677,0.359425 0.305116,0.27225 0.594461,0.495 0.642989,0.495 0.04853,0 0.492497,-0.202869 0.986598,-0.450821 z m 4.589749,-2.249873 C 24.808995,24.269502 25.11,24.073464 25.11,23.956828 c 0,-0.08898 -1.597712,-4.432294 -3.550469,-9.651806 C 17.826504,4.3270462 17.862004,4.41 17.325,4.41 c -0.653477,0 -0.912027,0.8103991 -0.818339,2.565 0.220179,4.12354 1.344632,9.248083 2.876204,13.107918 0.521976,1.31547 2.003545,4.486835 2.180325,4.667082 0.154818,0.157854 0.89106,0.432945 1.185694,0.443025 0.112136,0.0038 0.689261,-0.236337 1.2825,-0.533719 z m 1.838258,-4.775031 c 0.773877,-0.289544 0.80539,-0.346835 0.556056,-1.010884 -0.939333,-2.501714 -1.153746,-3.126544 -1.11106,-3.237783 0.02694,-0.07021 0.537508,-0.30052 1.134589,-0.511797 0.597082,-0.211275 1.127651,-0.434802 1.179042,-0.496726 0.188308,-0.226896 -0.461588,-1.849076 -0.739446,-1.845704 -0.0626,7.21e-4 -0.617176,0.183882 -1.232384,0.406938 -0.640384,0.232184 -1.152276,0.371844 -1.197424,0.326696 -0.127254,-0.127254 -0.711899,-1.741873 -0.653089,-1.803643 0.02952,-0.03101 0.729887,-0.301185 1.556373,-0.600399 L 26.865,10.566944 26.844371,10.226397 C 26.822514,9.8655561 26.423402,8.8863602 26.234175,8.7293152 26.082554,8.6034816 20.97,10.411376 20.97,10.590825 c 0,0.164274 3.491863,9.393878 3.606081,9.531503 0.10473,0.126191 0.528438,0.04822 1.293561,-0.238053 z m 5.940236,-2.108551 c 1.082565,-0.381969 1.069804,-0.244481 0.229855,-2.476435 -0.398672,-1.059367 -0.708148,-1.96846 -0.687726,-2.020206 0.04753,-0.12044 2.184305,-0.879005 2.37169,-0.841962 0.09285,0.01836 0.385314,0.673506 0.856152,1.917879 0.393319,1.0395 0.74898,1.9252 0.79036,1.968223 0.04249,0.04418 0.268229,0.03192 0.518674,-0.02816 0.345633,-0.08292 0.548844,-0.21311 0.921331,-0.590283 l 0.477893,-0.483904 -1.740364,-4.604523 C 34.590543,8.0838684 33.761106,5.9940764 33.70455,5.9723738 33.56608,5.9192381 32.226418,6.3486268 31.9725,6.5275306 31.861125,6.6060024 31.77,6.722652 31.77,6.7867518 c 0,0.0641 0.285628,0.8777749 0.63473,1.8081668 0.349101,0.9303916 0.60206,1.7242914 0.56213,1.7642214 -0.03993,0.03993 -0.578594,0.255352 -1.197031,0.478716 -0.881477,0.318366 -1.147779,0.382458 -1.232495,0.296629 C 30.477898,11.074269 30.167281,10.3365 29.847073,9.495 29.526866,8.6535 29.235158,7.8894594 29.198832,7.797132 29.143763,7.6571669 29.069054,7.6379992 28.749372,7.6818164 c -0.493123,0.06759 -1.5712,0.4982264 -1.629839,0.6510369 -0.03502,0.091256 1.443517,4.1030287 3.4716,9.4196467 0.120476,0.315827 0.375674,0.32069 1.218745,0.02322 z M 42.482474,13.891811 C 43.360148,13.307334 43.92,12.403523 43.92,11.571104 43.92,10.69775 43.343358,9.4357971 42.730785,8.9685654 42.388854,8.7077621 41.759523,8.46 41.438996,8.46 41.133377,8.46 41.101016,8.3296439 41.306596,7.9266721 41.733808,7.089267 41.445188,5.706617 40.684353,4.9457817 39.869839,4.1312671 38.705352,4.0204379 36.99,4.5941741 c -0.967829,0.3237108 -2.083831,0.8306051 -2.238192,1.0165978 -0.08073,0.097279 0.222575,0.9880614 1.387313,4.074363 0.819851,2.1724261 1.527162,3.9865611 1.571803,4.0314101 0.0484,0.04863 0.225631,-0.04897 0.439044,-0.241775 0.269656,-0.243618 0.492493,-0.349804 0.903955,-0.430755 C 39.379643,12.979934 39.6,12.890368 39.6,12.822058 c 0,-0.06299 -0.181036,-0.591657 -0.402302,-1.17482 -0.300242,-0.791308 -0.377418,-1.090279 -0.304216,-1.178483 0.05395,-0.065 0.303084,-0.179065 0.553638,-0.253471 0.962071,-0.2857046 1.606198,-0.09484 1.949249,0.5776 0.426378,0.835768 0.09694,1.571568 -0.873869,1.95177 -0.407489,0.159587 -0.480868,0.278159 -0.225,0.363571 0.392368,0.130978 1.315621,0.584764 1.525297,0.749695 0.280515,0.220653 0.372159,0.225361 0.659677,0.03389 z M 37.970215,8.3925 C 37.174033,6.3254016 37.182211,6.4244184 37.79093,6.2218213 38.750354,5.9025005 39.51,6.4474216 39.51,7.4549721 39.51,7.8976065 39.278335,8.1998528 38.747986,8.4491458 38.215277,8.6995486 38.084821,8.6900474 37.970215,8.3925 Z"
       id="path3410"
       inkscape:connector-curvature="0" />
    <path
       style="fill:#7c7c7c"
       d="M 24.702817,53.902601 C 19.562347,53.442816 14.560531,51.502097 10.575,48.420966 6.2552811,45.081481 3.1046781,40.65493 1.4032078,35.534731 c -1.87184149,-5.632893 -1.87184149,-11.436569 0,-17.069462 2.683628,-8.075785 8.9900342,-14.3797816 17.0718552,-17.0653311 5.618509,-1.867003 11.431365,-1.867003 17.049874,0 8.081821,2.6855495 14.388227,8.9895461 17.071855,17.0653311 1.871842,5.632893 1.871842,11.436569 0,17.069462 -1.70147,5.120199 -4.852073,9.54675 -9.171792,12.886235 -5.223724,4.038352 -12.158357,6.068731 -18.722183,5.481635 z m 1.462331,-1.627869 C 26.431771,52.174975 26.8014,51.945227 26.986546,51.764179 27.250408,51.506157 28.574285,48.954503 33.11092,39.96 l 5.787744,-11.475 0.913588,-0.9 c 0.502475,-0.495 1.892224,-1.841625 3.088333,-2.9925 2.130033,-2.049481 2.182478,-2.0925 2.550977,-2.0925 0.816887,0 1.347487,-0.503451 1.348101,-1.279124 8.1e-4,-1.052469 -0.62881,-1.975884 -2.872729,-4.213043 -2.280574,-2.273704 -3.183336,-2.886428 -4.281934,-2.906245 -0.743619,-0.01341 -1.066683,0.300427 -1.202828,1.168488 -0.07256,0.462622 -0.0885,0.480973 -3.022198,3.478214 l -2.949256,3.013138 -11.757859,5.780233 C 12.027526,31.811421 8.8908822,33.39391 8.7096357,33.597489 8.1615505,34.213103 8.0545542,34.586455 8.059805,35.865 c 0.00422,1.027747 0.0352,1.263011 0.254799,1.935 0.561684,1.718794 1.843297,3.914112 3.467894,5.940268 0.959311,1.196431 3.824418,4.059913 4.998686,4.995852 2.738218,2.182472 5.252931,3.465708 7.383816,3.767899 0.495967,0.07034 1.510035,-0.04591 2.000148,-0.229287 z M 23.985,51.472019 c -1.882684,-0.369013 -4.414951,-1.735268 -6.93,-3.739 C 15.855048,46.777021 13.433677,44.371265 12.492559,43.2 10.971922,41.307498 9.8471826,39.36805 9.3087558,37.71 9.1017666,37.072593 9.0592803,36.77988 9.0540207,35.955 c -0.00537,-0.843118 0.023851,-1.057024 0.1969884,-1.441747 l 0.203301,-0.451747 8.7782949,-4.387502 8.778295,-4.387504 0.537624,0.537624 c 0.322488,0.322488 0.770894,0.652462 1.120568,0.824606 0.524926,0.258421 0.697696,0.293946 1.735886,0.356942 1.45881,0.08852 2.540243,0.344286 3.444214,0.814583 0.640705,0.333332 1.250808,0.854536 1.250808,1.068553 0,0.0454 -0.182511,0.208115 -0.40558,0.361592 -0.687097,0.472734 -0.956839,1.221226 -0.726121,2.01487 0.111493,0.383522 0.238929,0.575465 0.594035,0.894736 0.248649,0.223558 0.620688,0.462668 0.826753,0.531356 0.206065,0.06869 0.386136,0.162857 0.400158,0.209263 0.01402,0.04641 -2.034094,4.154625 -4.551371,9.129375 l -4.576868,9.045 -0.428084,0.218111 c -0.489121,0.249211 -1.484898,0.328463 -2.247922,0.178908 z m -1.737647,-7.265521 c 0.587228,-0.288602 1.127277,-0.841515 1.408953,-1.442514 0.195741,-0.417643 0.238564,-0.638193 0.238622,-1.228984 6e-5,-0.606499 -0.03966,-0.800906 -0.25196,-1.233235 -0.904783,-1.842483 -3.286601,-2.252868 -4.725305,-0.814165 -1.464866,1.464866 -1.009585,3.845501 0.909825,4.75742 0.403635,0.191768 0.572034,0.218491 1.232512,0.195582 0.577918,-0.02004 0.868287,-0.07729 1.187353,-0.234104 z M 25.135391,38.5776 c 0.58622,-0.247759 1.138881,-1.037752 1.14213,-1.6326 0.0041,-0.750049 -0.585885,-1.638192 -1.229286,-1.850533 -0.502289,-0.16577 -1.30197,-0.06886 -1.721231,0.208597 -0.510097,0.337566 -0.864963,1.080221 -0.806568,1.68796 0.05917,0.615744 0.45393,1.231571 0.961219,1.499488 0.458654,0.242231 1.194915,0.281003 1.653736,0.08709 z M 22.05788,34.534798 c 0.382079,-0.257484 0.5291,-0.543777 0.530793,-1.03362 0.0029,-0.851516 -1.037476,-1.391244 -1.781589,-0.924217 C 20.505687,32.766126 20.25,33.224663 20.25,33.576008 c 0,0.32401 0.286162,0.816443 0.577796,0.994281 0.376118,0.229356 0.857696,0.215462 1.230083,-0.03549 z M 35.445179,31.902987 C 34.902435,31.62034 34.65,31.264695 34.65,30.78269 c 0,-0.500401 0.09705,-0.655735 0.677724,-1.084702 C 35.761895,29.377247 35.82,29.296949 35.82,29.017692 c 0,-0.404332 -0.167405,-0.719487 -0.600082,-1.129711 -1.007185,-0.954917 -2.507875,-1.470634 -4.670882,-1.605166 -0.932435,-0.05799 -1.258,-0.114136 -1.562402,-0.26943 C 28.555515,25.793444 27.81,25.141702 27.81,24.984752 c 0,-0.05628 1.139048,-0.668744 2.531218,-1.361037 L 32.872436,22.365 35.988718,19.189119 39.105,16.013236 39.15077,15.525348 c 0.05484,-0.584587 0.159534,-0.708637 0.58457,-0.692659 0.783914,0.02947 1.848704,0.808287 3.825384,2.797986 C 45.41188,19.494024 46.08,20.43992 46.08,21.197358 46.08,21.593897 45.814672,21.78 45.249322,21.78 c -0.488559,0 -0.209801,-0.240501 -4.694238,4.05 l -2.116531,2.025 -1.086254,2.1375 c -1.213163,2.387228 -1.137403,2.311335 -1.90712,1.910487 z m 9.788786,-10.889038 c 0.185272,-0.282761 0.118365,-0.675685 -0.195927,-1.150612 -0.236322,-0.357108 -0.440109,-0.405282 -0.605214,-0.14307 -0.09284,0.147439 -0.0619,0.272163 0.13592,0.547917 0.21978,0.306368 -0.02449,0.268957 -0.443958,-0.06799 C 43.447539,19.656172 41.09933,17.27758 40.797644,16.83 40.530812,16.434128 40.484247,16.323453 40.37165,15.8175 c -0.06834,-0.30709 -0.271016,-0.318444 -0.462685,-0.02592 -0.27302,0.416682 0.117587,1.147854 1.325436,2.48106 0.733719,0.809868 2.564979,2.480844 3.02957,2.764401 0.44483,0.271496 0.782236,0.263464 0.969994,-0.02309 z m -11.48434,28.500273 c 0.342323,-0.342324 0.474417,-0.856291 0.364717,-1.419087 -0.116745,-0.598946 -1.736845,-4.918144 -1.849342,-4.930361 -0.11796,-0.01281 -1.565833,2.811987 -1.571012,3.065045 -0.0057,0.279554 0.795705,2.508267 1.023508,2.846304 0.317608,0.471298 0.730683,0.693877 1.287737,0.693877 0.416866,0 0.526171,-0.03756 0.744392,-0.255778 z m 7.567298,-4.057299 c 0.598669,-0.598669 0.154624,-1.819009 -1.112817,-3.058282 -0.829166,-0.81074 -5.177373,-4.32796 -5.351005,-4.328374 -0.06155,-1.8e-4 -0.398854,0.572549 -0.749576,1.272658 -0.615504,1.228665 -0.631953,1.278426 -0.473101,1.431149 0.452554,0.435092 4.262253,3.747615 4.574576,3.977581 0.800896,0.589709 1.711323,0.952581 2.414423,0.962324 0.364501,0.005 0.476767,-0.03632 0.6975,-0.257056 z M 19.441635,26.909179 C 19.935736,26.661228 20.34,26.426219 20.34,26.386938 c 0,-0.05939 -1.432965,-1.271039 -1.743372,-1.474122 -0.05549,-0.0363 -0.100905,-0.467066 -0.109123,-1.035 -0.0151,-1.043301 -0.199913,-1.732344 -0.601634,-2.24305 C 17.631686,21.311622 8.4934229,14.017302 8.1,13.823514 c -0.07425,-0.03657 1.3142682,1.364049 3.085595,3.112494 1.771328,1.748446 3.219203,3.241767 3.2175,3.318492 -0.0042,0.190648 -0.184138,0.3555 -0.387967,0.3555 -0.09288,0 -1.613654,-1.146256 -3.3795,-2.547236 -3.7558457,-2.979798 -3.8763567,-3.072036 -3.9359155,-3.012476 -0.024964,0.02496 1.4442638,1.474971 3.2649498,3.222239 1.8206857,1.747268 3.3476797,3.269071 3.3933207,3.381784 0.100963,0.249337 -0.07644,0.507607 -0.32114,0.467532 C 12.946694,22.10708 11.363649,20.937225 9.518967,19.522165 7.6742853,18.107106 6.0435,16.871856 5.895,16.777165 L 5.625,16.605 5.76,16.801221 c 0.07425,0.107921 1.5239615,1.503892 3.2215812,3.102157 2.6458028,2.490953 3.0827858,2.938472 3.0599998,3.133778 -0.06043,0.518013 -0.297707,0.374415 -4.0762046,-2.466911 -3.5968674,-2.704746 -4.099203,-3.064872 -3.9592218,-2.838377 0.078892,0.12765 9.0423914,8.199216 9.4533234,8.512649 0.630918,0.481225 2.038688,0.603366 3.008893,0.261058 0.603394,-0.21289 0.744603,-0.175117 1.343677,0.359425 0.305116,0.27225 0.594461,0.495 0.642989,0.495 0.04853,0 0.492497,-0.202869 0.986598,-0.450821 z m 4.589749,-2.249873 C 24.808995,24.269502 25.11,24.073464 25.11,23.956828 c 0,-0.08898 -1.597712,-4.432294 -3.550469,-9.651806 C 17.826504,4.3270462 17.862004,4.41 17.325,4.41 c -0.653477,0 -0.912027,0.8103991 -0.818339,2.565 0.220179,4.12354 1.344632,9.248083 2.876204,13.107918 0.521976,1.31547 2.003545,4.486835 2.180325,4.667082 0.154818,0.157854 0.89106,0.432945 1.185694,0.443025 0.112136,0.0038 0.689261,-0.236337 1.2825,-0.533719 z m 1.838258,-4.775031 c 0.773877,-0.289544 0.80539,-0.346835 0.556056,-1.010884 -0.939333,-2.501714 -1.153746,-3.126544 -1.11106,-3.237783 0.02694,-0.07021 0.537508,-0.30052 1.134589,-0.511797 0.597082,-0.211275 1.127651,-0.434802 1.179042,-0.496726 0.188308,-0.226896 -0.461588,-1.849076 -0.739446,-1.845704 -0.0626,7.21e-4 -0.617176,0.183882 -1.232384,0.406938 -0.640384,0.232184 -1.152276,0.371844 -1.197424,0.326696 -0.127254,-0.127254 -0.711899,-1.741873 -0.653089,-1.803643 0.02952,-0.03101 0.729887,-0.301185 1.556373,-0.600399 L 26.865,10.566944 26.844371,10.226397 C 26.822514,9.8655561 26.423402,8.8863602 26.234175,8.7293152 26.082554,8.6034816 20.97,10.411376 20.97,10.590825 c 0,0.164274 3.491863,9.393878 3.606081,9.531503 0.10473,0.126191 0.528438,0.04822 1.293561,-0.238053 z m 5.940236,-2.108551 c 1.082565,-0.381969 1.069804,-0.244481 0.229855,-2.476435 -0.398672,-1.059367 -0.708148,-1.96846 -0.687726,-2.020206 0.04753,-0.12044 2.184305,-0.879005 2.37169,-0.841962 0.09285,0.01836 0.385314,0.673506 0.856152,1.917879 0.393319,1.0395 0.74898,1.9252 0.79036,1.968223 0.04249,0.04418 0.268229,0.03192 0.518674,-0.02816 0.345633,-0.08292 0.548844,-0.21311 0.921331,-0.590283 l 0.477893,-0.483904 -1.740364,-4.604523 C 34.590543,8.0838684 33.761106,5.9940764 33.70455,5.9723738 33.56608,5.9192381 32.226418,6.3486268 31.9725,6.5275306 31.861125,6.6060024 31.77,6.722652 31.77,6.7867518 c 0,0.0641 0.285628,0.8777749 0.63473,1.8081668 0.349101,0.9303916 0.60206,1.7242914 0.56213,1.7642214 -0.03993,0.03993 -0.578594,0.255352 -1.197031,0.478716 -0.881477,0.318366 -1.147779,0.382458 -1.232495,0.296629 C 30.477898,11.074269 30.167281,10.3365 29.847073,9.495 29.526866,8.6535 29.235158,7.8894594 29.198832,7.797132 29.143763,7.6571669 29.069054,7.6379992 28.749372,7.6818164 c -0.493123,0.06759 -1.5712,0.4982264 -1.629839,0.6510369 -0.03502,0.091256 1.443517,4.1030287 3.4716,9.4196467 0.120476,0.315827 0.375674,0.32069 1.218745,0.02322 z M 42.482474,13.891811 C 43.360148,13.307334 43.92,12.403523 43.92,11.571104 43.92,10.69775 43.343358,9.4357971 42.730785,8.9685654 42.388854,8.7077621 41.759523,8.46 41.438996,8.46 41.133377,8.46 41.101016,8.3296439 41.306596,7.9266721 41.733808,7.089267 41.445188,5.706617 40.684353,4.9457817 39.869839,4.1312671 38.705352,4.0204379 36.99,4.5941741 c -0.967829,0.3237108 -2.083831,0.8306051 -2.238192,1.0165978 -0.08073,0.097279 0.222575,0.9880614 1.387313,4.074363 0.819851,2.1724261 1.527162,3.9865611 1.571803,4.0314101 0.0484,0.04863 0.225631,-0.04897 0.439044,-0.241775 0.269656,-0.243618 0.492493,-0.349804 0.903955,-0.430755 C 39.379643,12.979934 39.6,12.890368 39.6,12.822058 c 0,-0.06299 -0.181036,-0.591657 -0.402302,-1.17482 -0.300242,-0.791308 -0.377418,-1.090279 -0.304216,-1.178483 0.05395,-0.065 0.303084,-0.179065 0.553638,-0.253471 0.962071,-0.2857046 1.606198,-0.09484 1.949249,0.5776 0.426378,0.835768 0.09694,1.571568 -0.873869,1.95177 -0.407489,0.159587 -0.480868,0.278159 -0.225,0.363571 0.392368,0.130978 1.315621,0.584764 1.525297,0.749695 0.280515,0.220653 0.372159,0.225361 0.659677,0.03389 z M 37.970215,8.3925 C 37.174033,6.3254016 37.182211,6.4244184 37.79093,6.2218213 38.750354,5.9025005 39.51,6.4474216 39.51,7.4549721 39.51,7.8976065 39.278335,8.1998528 38.747986,8.4491458 38.215277,8.6995486 38.084821,8.6900474 37.970215,8.3925 Z"
       id="path3408"
       inkscape:connector-curvature="0" />
    <path
       style="fill:#5e5e5e"
       d="M 24.702817,53.902601 C 19.562347,53.442816 14.560531,51.502097 10.575,48.420966 6.2552811,45.081481 3.1046781,40.65493 1.4032078,35.534731 c -1.87184149,-5.632893 -1.87184149,-11.436569 0,-17.069462 2.683628,-8.075785 8.9900342,-14.3797816 17.0718552,-17.0653311 5.618509,-1.867003 11.431365,-1.867003 17.049874,0 8.081821,2.6855495 14.388227,8.9895461 17.071855,17.0653311 1.871842,5.632893 1.871842,11.436569 0,17.069462 -1.70147,5.120199 -4.852073,9.54675 -9.171792,12.886235 -5.223724,4.038352 -12.158357,6.068731 -18.722183,5.481635 z m 1.462331,-1.627869 C 26.431771,52.174975 26.8014,51.945227 26.986546,51.764179 27.250408,51.506157 28.574285,48.954503 33.11092,39.96 l 5.787744,-11.475 0.913588,-0.9 c 0.502475,-0.495 1.892224,-1.841625 3.088333,-2.9925 2.130033,-2.049481 2.182478,-2.0925 2.550977,-2.0925 0.816887,0 1.347487,-0.503451 1.348101,-1.279124 8.1e-4,-1.052469 -0.62881,-1.975884 -2.872729,-4.213043 -2.280574,-2.273704 -3.183336,-2.886428 -4.281934,-2.906245 -0.743619,-0.01341 -1.066683,0.300427 -1.202828,1.168488 -0.07256,0.462622 -0.0885,0.480973 -3.022198,3.478214 l -2.949256,3.013138 -11.757859,5.780233 C 12.027526,31.811421 8.8908822,33.39391 8.7096357,33.597489 8.1615505,34.213103 8.0545542,34.586455 8.059805,35.865 c 0.00422,1.027747 0.0352,1.263011 0.254799,1.935 0.561684,1.718794 1.843297,3.914112 3.467894,5.940268 0.959311,1.196431 3.824418,4.059913 4.998686,4.995852 2.738218,2.182472 5.252931,3.465708 7.383816,3.767899 0.495967,0.07034 1.510035,-0.04591 2.000148,-0.229287 z M 35.445179,31.902987 C 34.902435,31.62034 34.65,31.264695 34.65,30.78269 c 0,-0.500401 0.09705,-0.655735 0.677724,-1.084702 C 35.761895,29.377247 35.82,29.296949 35.82,29.017692 c 0,-0.404332 -0.167405,-0.719487 -0.600082,-1.129711 -1.007185,-0.954917 -2.507875,-1.470634 -4.670882,-1.605166 -0.932435,-0.05799 -1.258,-0.114136 -1.562402,-0.26943 C 28.555515,25.793444 27.81,25.141702 27.81,24.984752 c 0,-0.05628 1.139048,-0.668744 2.531218,-1.361037 L 32.872436,22.365 35.988718,19.189119 39.105,16.013236 39.15077,15.525348 c 0.05484,-0.584587 0.159534,-0.708637 0.58457,-0.692659 0.783914,0.02947 1.848704,0.808287 3.825384,2.797986 C 45.41188,19.494024 46.08,20.43992 46.08,21.197358 46.08,21.593897 45.814672,21.78 45.249322,21.78 c -0.488559,0 -0.209801,-0.240501 -4.694238,4.05 l -2.116531,2.025 -1.086254,2.1375 c -1.213163,2.387228 -1.137403,2.311335 -1.90712,1.910487 z m 9.788786,-10.889038 c 0.185272,-0.282761 0.118365,-0.675685 -0.195927,-1.150612 -0.236322,-0.357108 -0.440109,-0.405282 -0.605214,-0.14307 -0.09284,0.147439 -0.0619,0.272163 0.13592,0.547917 0.21978,0.306368 -0.02449,0.268957 -0.443958,-0.06799 C 43.447539,19.656172 41.09933,17.27758 40.797644,16.83 40.530812,16.434128 40.484247,16.323453 40.37165,15.8175 c -0.06834,-0.30709 -0.271016,-0.318444 -0.462685,-0.02592 -0.27302,0.416682 0.117587,1.147854 1.325436,2.48106 0.733719,0.809868 2.564979,2.480844 3.02957,2.764401 0.44483,0.271496 0.782236,0.263464 0.969994,-0.02309 z m -11.48434,28.500273 c 0.342323,-0.342324 0.474417,-0.856291 0.364717,-1.419087 -0.116745,-0.598946 -1.736845,-4.918144 -1.849342,-4.930361 -0.11796,-0.01281 -1.565833,2.811987 -1.571012,3.065045 -0.0057,0.279554 0.795705,2.508267 1.023508,2.846304 0.317608,0.471298 0.730683,0.693877 1.287737,0.693877 0.416866,0 0.526171,-0.03756 0.744392,-0.255778 z m 7.567298,-4.057299 c 0.598669,-0.598669 0.154624,-1.819009 -1.112817,-3.058282 -0.829166,-0.81074 -5.177373,-4.32796 -5.351005,-4.328374 -0.06155,-1.8e-4 -0.398854,0.572549 -0.749576,1.272658 -0.615504,1.228665 -0.631953,1.278426 -0.473101,1.431149 0.452554,0.435092 4.262253,3.747615 4.574576,3.977581 0.800896,0.589709 1.711323,0.952581 2.414423,0.962324 0.364501,0.005 0.476767,-0.03632 0.6975,-0.257056 z M 19.441635,26.909179 C 19.935736,26.661228 20.34,26.426219 20.34,26.386938 c 0,-0.05939 -1.432965,-1.271039 -1.743372,-1.474122 -0.05549,-0.0363 -0.100905,-0.467066 -0.109123,-1.035 -0.0151,-1.043301 -0.199913,-1.732344 -0.601634,-2.24305 C 17.631686,21.311622 8.4934229,14.017302 8.1,13.823514 c -0.07425,-0.03657 1.3142682,1.364049 3.085595,3.112494 1.771328,1.748446 3.219203,3.241767 3.2175,3.318492 -0.0042,0.190648 -0.184138,0.3555 -0.387967,0.3555 -0.09288,0 -1.613654,-1.146256 -3.3795,-2.547236 -3.7558457,-2.979798 -3.8763567,-3.072036 -3.9359155,-3.012476 -0.024964,0.02496 1.4442638,1.474971 3.2649498,3.222239 1.8206857,1.747268 3.3476797,3.269071 3.3933207,3.381784 0.100963,0.249337 -0.07644,0.507607 -0.32114,0.467532 C 12.946694,22.10708 11.363649,20.937225 9.518967,19.522165 7.6742853,18.107106 6.0435,16.871856 5.895,16.777165 L 5.625,16.605 5.76,16.801221 c 0.07425,0.107921 1.5239615,1.503892 3.2215812,3.102157 2.6458028,2.490953 3.0827858,2.938472 3.0599998,3.133778 -0.06043,0.518013 -0.297707,0.374415 -4.0762046,-2.466911 -3.5968674,-2.704746 -4.099203,-3.064872 -3.9592218,-2.838377 0.078892,0.12765 9.0423914,8.199216 9.4533234,8.512649 0.630918,0.481225 2.038688,0.603366 3.008893,0.261058 0.603394,-0.21289 0.744603,-0.175117 1.343677,0.359425 0.305116,0.27225 0.594461,0.495 0.642989,0.495 0.04853,0 0.492497,-0.202869 0.986598,-0.450821 z m 4.589749,-2.249873 C 24.808995,24.269502 25.11,24.073464 25.11,23.956828 c 0,-0.08898 -1.597712,-4.432294 -3.550469,-9.651806 C 17.826504,4.3270462 17.862004,4.41 17.325,4.41 c -0.653477,0 -0.912027,0.8103991 -0.818339,2.565 0.220179,4.12354 1.344632,9.248083 2.876204,13.107918 0.521976,1.31547 2.003545,4.486835 2.180325,4.667082 0.154818,0.157854 0.89106,0.432945 1.185694,0.443025 0.112136,0.0038 0.689261,-0.236337 1.2825,-0.533719 z m 1.838258,-4.775031 c 0.773877,-0.289544 0.80539,-0.346835 0.556056,-1.010884 -0.939333,-2.501714 -1.153746,-3.126544 -1.11106,-3.237783 0.02694,-0.07021 0.537508,-0.30052 1.134589,-0.511797 0.597082,-0.211275 1.127651,-0.434802 1.179042,-0.496726 0.188308,-0.226896 -0.461588,-1.849076 -0.739446,-1.845704 -0.0626,7.21e-4 -0.617176,0.183882 -1.232384,0.406938 -0.640384,0.232184 -1.152276,0.371844 -1.197424,0.326696 -0.127254,-0.127254 -0.711899,-1.741873 -0.653089,-1.803643 0.02952,-0.03101 0.729887,-0.301185 1.556373,-0.600399 L 26.865,10.566944 26.844371,10.226397 C 26.822514,9.8655561 26.423402,8.8863602 26.234175,8.7293152 26.082554,8.6034816 20.97,10.411376 20.97,10.590825 c 0,0.164274 3.491863,9.393878 3.606081,9.531503 0.10473,0.126191 0.528438,0.04822 1.293561,-0.238053 z m 5.940236,-2.108551 c 1.082565,-0.381969 1.069804,-0.244481 0.229855,-2.476435 -0.398672,-1.059367 -0.708148,-1.96846 -0.687726,-2.020206 0.04753,-0.12044 2.184305,-0.879005 2.37169,-0.841962 0.09285,0.01836 0.385314,0.673506 0.856152,1.917879 0.393319,1.0395 0.74898,1.9252 0.79036,1.968223 0.04249,0.04418 0.268229,0.03192 0.518674,-0.02816 0.345633,-0.08292 0.548844,-0.21311 0.921331,-0.590283 l 0.477893,-0.483904 -1.740364,-4.604523 C 34.590543,8.0838684 33.761106,5.9940764 33.70455,5.9723738 33.56608,5.9192381 32.226418,6.3486268 31.9725,6.5275306 31.861125,6.6060024 31.77,6.722652 31.77,6.7867518 c 0,0.0641 0.285628,0.8777749 0.63473,1.8081668 0.349101,0.9303916 0.60206,1.7242914 0.56213,1.7642214 -0.03993,0.03993 -0.578594,0.255352 -1.197031,0.478716 -0.881477,0.318366 -1.147779,0.382458 -1.232495,0.296629 C 30.477898,11.074269 30.167281,10.3365 29.847073,9.495 29.526866,8.6535 29.235158,7.8894594 29.198832,7.797132 29.143763,7.6571669 29.069054,7.6379992 28.749372,7.6818164 c -0.493123,0.06759 -1.5712,0.4982264 -1.629839,0.6510369 -0.03502,0.091256 1.443517,4.1030287 3.4716,9.4196467 0.120476,0.315827 0.375674,0.32069 1.218745,0.02322 z M 42.482474,13.891811 C 43.360148,13.307334 43.92,12.403523 43.92,11.571104 43.92,10.69775 43.343358,9.4357971 42.730785,8.9685654 42.388854,8.7077621 41.759523,8.46 41.438996,8.46 41.133377,8.46 41.101016,8.3296439 41.306596,7.9266721 41.733808,7.089267 41.445188,5.706617 40.684353,4.9457817 39.869839,4.1312671 38.705352,4.0204379 36.99,4.5941741 c -0.967829,0.3237108 -2.083831,0.8306051 -2.238192,1.0165978 -0.08073,0.097279 0.222575,0.9880614 1.387313,4.074363 0.819851,2.1724261 1.527162,3.9865611 1.571803,4.0314101 0.0484,0.04863 0.225631,-0.04897 0.439044,-0.241775 0.269656,-0.243618 0.492493,-0.349804 0.903955,-0.430755 C 39.379643,12.979934 39.6,12.890368 39.6,12.822058 c 0,-0.06299 -0.181036,-0.591657 -0.402302,-1.17482 -0.300242,-0.791308 -0.377418,-1.090279 -0.304216,-1.178483 0.05395,-0.065 0.303084,-0.179065 0.553638,-0.253471 0.962071,-0.2857046 1.606198,-0.09484 1.949249,0.5776 0.426378,0.835768 0.09694,1.571568 -0.873869,1.95177 -0.407489,0.159587 -0.480868,0.278159 -0.225,0.363571 0.392368,0.130978 1.315621,0.584764 1.525297,0.749695 0.280515,0.220653 0.372159,0.225361 0.659677,0.03389 z M 37.970215,8.3925 C 37.174033,6.3254016 37.182211,6.4244184 37.79093,6.2218213 38.750354,5.9025005 39.51,6.4474216 39.51,7.4549721 39.51,7.8976065 39.278335,8.1998528 38.747986,8.4491458 38.215277,8.6995486 38.084821,8.6900474 37.970215,8.3925 Z"
       id="path3406"
       inkscape:connector-curvature="0" />
    <path
       style="fill:#2e2e2e"
       d="M 25.2,53.907891 C 17.167482,53.240184 10.117598,49.372928 5.3797563,43.035377 2.2615836,38.864369 0.48974066,33.966581 0.07525666,28.3725 -0.07661584,26.322754 0.16247964,23.636462 0.71810087,21.15 2.6488785,12.509572 8.6950457,5.3772951 16.92,2.0376542 20.500346,0.58389886 24.949079,-0.17839597 28.3725,0.07525666 36.737607,0.69505513 43.770503,4.4773916 48.620244,10.964623 51.738416,15.135631 53.51026,20.033419 53.924743,25.6275 54.076616,27.677246 53.83752,30.363538 53.281899,32.85 51.351122,41.490427 45.304954,48.622705 37.08,51.962346 33.355749,53.474532 28.854547,54.211678 25.2,53.907891 Z m 1.173156,-1.641506 c 0.273986,-0.132635 0.604187,-0.353706 0.733781,-0.49127 0.129593,-0.137563 2.869246,-5.454318 6.088117,-11.815011 l 5.852493,-11.564897 3.018304,-2.902603 C 44.953522,22.715625 45.099037,22.59 45.428008,22.59 c 0.495021,0 1.113185,-0.339722 1.310125,-0.72 0.233312,-0.450515 0.15802,-1.164654 -0.196924,-1.867793 -0.380092,-0.75296 -1.356107,-1.897817 -2.87192,-3.368738 C 41.637838,14.662182 40.681322,14.04 39.682199,14.04 c -0.81563,0 -1.193623,0.355602 -1.313775,1.235949 -0.05728,0.419687 -0.12274,0.49453 -2.999422,3.429427 l -2.940864,3.000376 -11.775731,5.798254 c -6.476652,3.18904 -11.8502293,5.865674 -11.9412827,5.948076 -0.091053,0.0824 -0.2940709,0.410882 -0.4511501,0.729955 -1.0067223,2.044944 0.2513983,5.567199 3.3854508,9.477966 2.933782,3.660862 7.097977,7.049406 10.164306,8.271035 1.282727,0.511039 1.885592,0.630869 3.030269,0.602317 0.907792,-0.02264 1.096227,-0.05546 1.533156,-0.26697 z m 9.108466,-20.416296 c -0.514379,-0.254613 -0.786305,-0.650325 -0.786483,-1.144505 -1.8e-4,-0.40665 0.101931,-0.533791 0.939295,-1.169929 C 35.848789,29.37281 35.91,29.256867 35.91,29.013685 c 0,-0.428933 -0.174096,-0.729346 -0.716922,-1.237097 -0.943034,-0.882098 -2.5936,-1.440413 -4.655938,-1.574901 -0.7839,-0.05112 -1.267502,-0.126631 -1.491388,-0.232872 -0.393353,-0.186658 -1.145919,-0.829895 -1.145355,-0.978964 1.8e-4,-0.05767 1.119295,-0.65033 2.486837,-1.317028 l 2.48644,-1.212177 3.183109,-3.242823 3.183108,-3.242823 5.4e-5,-0.469334 c 4.4e-5,-0.377515 0.03534,-0.488218 0.180431,-0.565868 0.199945,-0.107007 0.738336,0.0029 1.214624,0.248003 0.477404,0.245655 1.589017,1.201541 2.796583,2.404806 1.859673,1.853049 2.551835,2.817438 2.556441,3.561893 0.0027,0.434181 -0.129875,0.5355 -0.700616,0.5355 -0.478363,0 -0.497466,0.01038 -1.1295,0.613706 -0.353599,0.337539 -1.797158,1.720999 -3.207908,3.074357 l -2.565,2.46065 -1.08,2.098405 c -1.189106,2.310392 -1.135055,2.253685 -1.823378,1.912971 z M 45.149691,21.1971 c 0.293613,-0.205655 0.329533,-0.530799 0.113991,-1.031839 -0.239812,-0.557458 -0.487806,-0.798278 -0.690436,-0.670463 -0.269472,0.169979 -0.347404,0.377813 -0.218854,0.583655 0.06494,0.103991 0.10041,0.206744 0.07882,0.22834 -0.06522,0.06522 -1.672978,-1.407594 -2.554917,-2.340465 C 40.943115,16.977146 40.5,16.359014 40.5,16.043653 c 0,-0.487738 -0.296604,-0.704192 -0.578571,-0.422224 -0.217739,0.217738 -0.171519,0.749259 0.106805,1.228249 0.382804,0.658798 1.547795,1.939751 2.781108,3.057937 1.552381,1.407469 1.899134,1.598524 2.340349,1.289485 z M 33.63313,49.683643 c 0.439006,-0.267677 0.592273,-0.643025 0.549135,-1.344819 C 34.153084,47.864113 33.976688,47.29368 33.302866,45.495 32.463985,43.255722 32.359771,43.02 32.208649,43.02 c -0.04362,0 -0.432694,0.708138 -0.864607,1.573639 l -0.785297,1.573639 0.432769,1.308727 c 0.466863,1.411829 0.773796,1.928554 1.317082,2.217316 0.406295,0.215949 0.961142,0.211896 1.324534,-0.0097 z m 7.743125,-4.191898 c 0.303486,-0.303486 0.315955,-0.340544 0.268688,-0.798516 -0.09314,-0.902483 -0.798391,-1.924615 -2.047414,-2.967375 C 37.630401,40.08358 34.989542,38.025 34.849869,38.025 c -0.108441,0 -0.347404,0.376801 -0.797104,1.25689 -0.353229,0.691289 -0.624317,1.303582 -0.602417,1.360653 0.04056,0.105682 3.776225,3.415174 4.524041,4.007922 0.880136,0.697629 1.929257,1.139802 2.737111,1.153612 0.280887,0.0048 0.406764,-0.05434 0.664755,-0.312332 z M 19.434671,27.002674 c 0.49027,-0.246029 0.921785,-0.496489 0.958922,-0.556578 0.04268,-0.06905 -0.07781,-0.227333 -0.327461,-0.430174 -0.21724,-0.176507 -0.639367,-0.525952 -0.938058,-0.776543 L 18.585,24.783756 18.535573,23.709379 C 18.482063,22.546237 18.343015,22.090657 17.871129,21.532374 17.735091,21.371431 15.772545,19.766913 13.509914,17.966782 8.2320935,13.767787 7.6575505,13.32 7.5477588,13.32 c -0.1774217,0 0.3654904,0.55771 3.5447412,3.641358 2.003201,1.942963 3.2175,3.1852 3.2175,3.291528 0,0.09393 -0.07828,0.212674 -0.173952,0.263877 -0.149904,0.08023 -0.659463,-0.29211 -3.686024,-2.693388 C 6.6828411,14.834484 6.2325225,14.49 6.0925477,14.49 c -0.1343909,0 0.042316,0.179799 2.5924523,2.637818 4.294803,4.139663 4.644655,4.495362 4.6163,4.693451 -0.01503,0.104972 -0.10346,0.193364 -0.2063,0.206203 -0.118443,0.01479 -1.441925,-0.94894 -3.87,-2.818037 C 7.1955,17.647156 5.4208852,16.308211 5.2814115,16.234004 5.0417104,16.106469 5.0327326,16.108254 5.1174727,16.266593 5.16678,16.358724 6.7287698,17.867722 8.5885611,19.61992 11.134812,22.018864 11.97,22.856895 11.97,23.012868 11.97,23.159779 11.91783,23.22 11.790575,23.22 c -0.09868,0 -1.9915919,-1.358153 -4.2064611,-3.018118 -2.268933,-1.700483 -4.0427482,-2.970979 -4.0630261,-2.910145 -0.019795,0.05938 0.2632376,0.379106 0.6289608,0.710493 4.9081904,4.447384 9.2796624,8.32486 9.5348444,8.457361 0.764881,0.39716 2.005128,0.415863 3.053302,0.04604 0.438545,-0.154727 0.356565,-0.193365 1.190449,0.561078 0.233005,0.210807 0.466615,0.383286 0.519136,0.383286 0.05252,0 0.496621,-0.201297 0.986891,-0.447326 z M 24.075,24.723823 c 0.63026,-0.326115 1.091408,-0.620726 1.107395,-0.707476 0.04782,-0.259457 -7.070831,-19.1756925 -7.304054,-19.4089151 -0.33046,-0.3304597 -0.984967,-0.28369 -1.216419,0.086923 -0.438356,0.7019191 -0.2492,3.9160027 0.446727,7.5906451 0.542485,2.864439 1.340563,5.662036 2.280668,7.9947 0.589264,1.462126 1.915775,4.281341 2.111357,4.487234 0.182845,0.192485 0.973278,0.512862 1.269326,0.514481 0.12375,7.2e-4 0.711,-0.25024 1.305,-0.557592 z m 1.26,-4.573628 c 0.198,-0.05434 0.572625,-0.198806 0.8325,-0.321034 0.35744,-0.168117 0.472461,-0.269952 0.472342,-0.418197 -8.8e-5,-0.10778 -0.300372,-0.985714 -0.667298,-1.950964 -0.366927,-0.96525 -0.638422,-1.785158 -0.603324,-1.822018 0.0351,-0.03686 0.565871,-0.249491 1.179496,-0.472515 0.613624,-0.223024 1.143221,-0.450061 1.176883,-0.504526 0.1551,-0.250957 -0.503837,-1.970941 -0.75508,-1.970941 -0.07092,0 -0.64572,0.183325 -1.277341,0.407388 -0.631621,0.224064 -1.17036,0.385431 -1.197196,0.358594 C 24.435715,13.395715 23.85,11.888687 23.85,11.793889 c 0,-0.03774 0.658125,-0.301923 1.4625,-0.587083 0.804375,-0.285159 1.516196,-0.568739 1.581825,-0.630178 0.09554,-0.08944 0.09855,-0.190426 0.01508,-0.506667 C 26.759421,9.5016654 26.370541,8.6594654 26.233913,8.6070365 26.050601,8.536693 20.928871,10.39121 20.900599,10.538167 c -0.01342,0.06976 0.786454,2.271548 1.7775,4.892867 0.991045,2.621319 1.801901,4.777944 1.801901,4.7925 0,0.06248 0.523846,0.01754 0.855,-0.07334 z m 6.03,-2.158592 c 0.54849,-0.148386 1.377586,-0.536407 1.428246,-0.668427 0.02481,-0.06466 -0.275314,-0.961456 -0.666949,-1.992873 -0.391636,-1.031416 -0.713017,-1.920413 -0.714181,-1.975547 -0.0021,-0.100418 1.986996,-0.845616 2.25566,-0.845054 0.103186,1.8e-4 0.337105,0.51813 0.843601,1.867798 0.385455,1.027125 0.752084,1.922306 0.814731,1.989292 0.09564,0.102259 0.192529,0.09893 0.604172,-0.02073 0.386277,-0.112294 0.588997,-0.246916 0.95573,-0.634682 l 0.465462,-0.492158 -0.258781,-0.702109 C 35.611096,10.497346 33.891194,6.0546168 33.784687,5.9721055 33.514483,5.7627778 31.68,6.4254661 31.68,6.7324019 c 0,0.082132 0.2887,0.9109901 0.641556,1.8419079 0.352856,0.9309178 0.618875,1.7152592 0.591153,1.7429802 -0.02772,0.02772 -0.548616,0.230346 -1.157545,0.450274 -0.985737,0.356023 -1.118539,0.384285 -1.211083,0.257724 -0.05717,-0.07818 -0.378249,-0.87338 -0.713515,-1.7671077 C 29.495299,8.3644513 29.163282,7.6110739 29.092748,7.5840078 28.804739,7.4734879 27,8.1496954 27,8.3681281 c 0,0.102209 3.474064,9.3065569 3.604945,9.5511099 0.10457,0.195391 0.25305,0.209529 0.760055,0.07237 z M 42.623996,13.87475 c 0.48268,-0.351005 1.015465,-0.959373 1.184195,-1.35219 C 44.132029,11.768643 43.913533,10.396446 43.3345,9.5476896 43.004947,9.0646245 42.348677,8.5921688 41.819161,8.4567798 41.613372,8.4041631 41.395841,8.3446963 41.335758,8.3246315 41.256536,8.2981751 41.278072,8.1715987 41.414128,7.864023 41.822827,6.9400901 41.453184,5.508996 40.615346,4.7715022 39.81937,4.0708568 38.722809,3.9724975 37.158805,4.4614577 36.254236,4.744256 34.678266,5.4665253 34.616912,5.6264101 c -0.02413,0.062879 0.641696,1.9258603 1.479608,4.1399588 0.837914,2.2140981 1.52348,4.0409331 1.52348,4.0596331 0,0.117114 0.251727,-0.0099 0.545222,-0.275012 0.345616,-0.312244 0.82368,-0.499568 1.277278,-0.500488 0.336586,-7.2e-4 0.323681,-0.113772 -0.157661,-1.381662 C 39.062222,11.082452 38.900361,10.569867 38.925146,10.529764 39.014818,10.384671 39.8226,10.17 40.278895,10.17 c 0.754099,0 1.211105,0.507145 1.211105,1.343978 0,0.477276 -0.38238,0.913482 -1.039519,1.185852 -0.271678,0.112603 -0.481903,0.240904 -0.467167,0.28511 0.01474,0.04421 0.317085,0.193321 0.671888,0.331365 0.354805,0.138044 0.81726,0.377598 1.027679,0.532342 0.210418,0.154745 0.429275,0.281353 0.486345,0.281353 0.05707,0 0.261719,-0.114863 0.45477,-0.25525 z M 37.756413,7.6275 C 37.568731,7.120125 37.396093,6.6541542 37.37277,6.5920095 37.317053,6.4435456 37.881832,6.21 38.296579,6.21 c 0.666317,0 1.137802,0.4784928 1.156018,1.1732006 0.01135,0.432936 -0.233633,0.7841992 -0.692113,0.9923643 C 38.147882,8.6537058 38.131498,8.6414985 37.756413,7.6275 Z"
       id="path3404"
       inkscape:connector-curvature="0" />
    <path
       style="fill:#000000"
       d="m 25.8975,53.931979 c -0.433125,-0.01594 -0.7875,-0.06184 -0.7875,-0.102006 0,-0.04016 -0.354375,-0.09833 -0.7875,-0.129261 -0.433125,-0.03093 -1.26749,-0.139749 -1.854145,-0.241814 C 14.720887,52.111021 8.0343712,47.527563 3.9573336,40.77 3.1947583,39.506055 2.2731927,37.566216 1.756732,36.137868 1.032636,34.135274 0.43496472,31.495497 0.3007225,29.707009 0.26885203,29.282404 0.20416318,28.909741 0.15696949,28.878868 c -0.11389345,-0.07451 -0.11389345,-3.683229 0,-3.757736 0.0471937,-0.03087 0.11188254,-0.403537 0.14375301,-0.828141 C 0.50177692,21.614374 1.4607423,18.192264 2.7829648,15.435 4.1994401,12.481188 5.9219297,10.088405 8.292088,7.7820442 10.531185,5.6032163 12.658364,4.1144771 15.435,2.7829648 18.192264,1.4607423 21.614374,0.50177692 24.292991,0.3007225 24.717595,0.268852 25.090259,0.2041632 25.121132,0.15696949 c 0.07451,-0.11389345 3.683229,-0.11389345 3.757736,0 0.03087,0.0471937 0.403536,0.11188254 0.828141,0.14375301 0.424606,0.0318705 1.248846,0.14074707 1.831645,0.24194801 C 39.273955,1.8858766 45.967279,6.4751741 50.042667,13.23 c 0.762574,1.263945 1.68414,3.203784 2.200601,4.632132 0.724096,2.002594 1.321767,4.642371 1.45601,6.430859 0.03187,0.424604 0.09656,0.797268 0.143752,0.828141 0.113894,0.07451 0.113894,3.683229 0,3.757736 -0.04719,0.03087 -0.111882,0.403536 -0.143752,0.828141 -0.201055,2.678617 -1.16002,6.100727 -2.482243,8.857991 -1.416476,2.953812 -3.138965,5.346595 -5.509123,7.652956 -2.239097,2.178828 -4.366276,3.667567 -7.142912,4.999079 -2.757264,1.322223 -6.179374,2.281188 -8.857991,2.482243 -0.424605,0.03187 -0.792259,0.08618 -0.817009,0.120692 -0.05688,0.07931 -1.95284,0.150277 -2.9925,0.112009 z m 0.150919,-1.459715 c 0.284128,-0.09775 0.685344,-0.301619 0.89159,-0.453034 0.350803,-0.257541 0.755666,-1.027107 6.276759,-11.930909 l 5.901769,-11.655611 2.985102,-2.863744 2.985102,-2.863744 0.459316,-0.0544 c 0.533988,-0.06324 0.930664,-0.2719 1.197535,-0.629922 0.144674,-0.194087 0.189408,-0.385389 0.189408,-0.81 0,-1.064571 -0.706656,-2.142722 -2.746949,-4.191043 -1.380462,-1.385895 -2.669428,-2.460668 -3.320377,-2.768615 -0.64505,-0.305158 -1.480829,-0.381801 -1.884897,-0.17285 -0.374079,0.193444 -0.613699,0.592998 -0.690494,1.151361 -0.06036,0.438873 -0.09503,0.478752 -2.942374,3.384677 -2.325624,2.373468 -2.987713,2.99825 -3.433102,3.239654 -0.303493,0.164496 -5.614147,2.788841 -11.801452,5.831877 -6.187303,3.043037 -11.3574412,5.63607 -11.4891942,5.762298 -0.6787644,0.650297 -0.9542904,2.115947 -0.6668213,3.547129 0.9978801,4.968005 8.1783195,12.740183 13.8771855,15.020803 1.156608,0.462861 1.849946,0.613433 2.876885,0.624772 0.599378,0.0066 0.956669,-0.03853 1.335009,-0.168699 z M 35.64,31.849341 c -0.358322,-0.142132 -0.803379,-0.627526 -0.862029,-0.940155 -0.07502,-0.399872 0.143572,-0.776696 0.628512,-1.083492 0.660054,-0.417581 0.763513,-0.902397 0.336321,-1.57601 -0.545555,-0.86025 -2.086424,-1.676578 -3.725758,-1.973846 -0.302743,-0.0549 -1.018802,-0.129704 -1.591244,-0.166236 -0.687266,-0.04386 -1.152227,-0.11987 -1.368833,-0.223773 -0.410156,-0.196746 -1.084838,-0.767224 -1.045815,-0.884291 0.01605,-0.04816 1.148475,-0.64083 2.516495,-1.317049 l 2.487308,-1.229489 3.153218,-3.223798 3.153218,-3.223798 0.0268,-0.511202 0.0268,-0.511202 0.373663,0.01616 c 0.739956,0.03201 1.706904,0.735901 3.591183,2.614227 1.899465,1.893464 2.602233,2.889615 2.542941,3.604545 L 45.855,21.555 45.30881,21.6 c -0.648997,0.05347 -0.360951,-0.188113 -4.328736,3.630481 l -2.696886,2.595482 -1.058665,2.062018 C 36.123031,32.033416 36.118426,32.039115 35.64,31.849341 Z M 45.132923,21.31457 c 0.270038,-0.123037 0.35832,-0.393778 0.29131,-0.893376 -0.04815,-0.358986 -0.423185,-0.951905 -0.659449,-1.042568 C 44.580165,19.307781 44.19,19.595219 44.19,19.802074 44.19,19.899933 44.15116,19.98 44.10369,19.98 44.05622,19.98 43.394795,19.362375 42.633858,18.6075 41.234837,17.219626 40.59,16.412083 40.59,16.047936 c 0,-0.587906 -0.47033,-0.871325 -0.759897,-0.45791 -0.213924,0.305419 -0.169551,0.780743 0.119957,1.284974 0.777437,1.354046 4.177267,4.544492 4.843205,4.544929 0.05955,3.9e-5 0.212392,-0.04737 0.339658,-0.105359 z m -11.4946,28.455916 c 0.518832,-0.316336 0.669191,-0.665709 0.619939,-1.440486 -0.03686,-0.579907 -0.168076,-1.004657 -0.931391,-3.015 -0.745606,-1.963705 -0.916897,-2.34 -1.065177,-2.34 -0.138498,0 -0.351388,0.34435 -0.984822,1.592957 l -0.808127,1.592957 0.302112,0.927043 c 0.509791,1.564316 0.648895,1.882307 0.987515,2.257453 0.179645,0.199023 0.448128,0.414889 0.596628,0.479702 0.398378,0.173873 0.946845,0.150527 1.283323,-0.05463 z m 7.524059,-3.994413 c 0.388427,-0.162295 0.636082,-0.666003 0.569932,-1.159189 -0.07906,-0.589456 -0.552802,-1.421418 -1.20473,-2.1157 C 39.803299,41.729845 35.043244,37.89 34.81134,37.89 c -0.115827,0 -0.334628,0.348314 -0.790739,1.2588 C 33.67377,39.841141 33.39,40.486546 33.39,40.583034 c 0,0.115203 0.625712,0.727446 1.8225,1.783272 2.6675,2.353312 3.065251,2.671489 3.782842,3.026058 0.995094,0.491684 1.636712,0.605293 2.16704,0.383709 z M 19.537385,27.041296 c 0.735288,-0.36876 0.986884,-0.537662 0.965592,-0.648223 -0.01584,-0.08224 -0.433611,-0.480301 -0.928386,-0.884589 L 18.675,24.773413 18.620512,23.704207 C 18.564291,22.600997 18.374665,21.97333 17.938734,21.447499 17.687619,21.144596 7.3565152,12.96 7.225289,12.96 7.1618801,12.96 7.11,13.016162 7.11,13.084804 c 0,0.06864 1.6016567,1.675337 3.559237,3.570433 3.496886,3.385268 3.788062,3.712895 3.41017,3.837077 -0.05257,0.01728 -1.834575,-1.350177 -3.96,-3.038789 C 7.9939834,15.764913 6.1637038,14.339996 6.0521197,14.287041 5.8221899,14.177924 5.7325751,14.22381 5.8053302,14.413407 c 0.027262,0.07104 1.7089653,1.720654 3.7371187,3.6658 3.5443631,3.399302 4.0474521,3.952697 3.5132531,3.864552 -0.09586,-0.01582 -1.873389,-1.33361 -3.9500564,-2.928428 C 5.1732341,15.995358 4.68,15.643166 4.68,15.855218 c 0,0.154564 1.1305421,1.269981 4.5,4.439794 1.46025,1.373727 2.667942,2.573579 2.683759,2.666337 0.01807,0.105988 -0.02421,0.168651 -0.113794,0.168651 -0.0784,0 -1.9415382,-1.35675 -4.1402983,-3.015 C 5.4109068,18.45675 3.548489,17.1 3.4709607,17.1 c -0.3045346,0 -0.1046356,0.287266 0.7365393,1.058451 3.347112,3.068611 9.199426,8.252237 9.476181,8.393427 0.728788,0.3718 2.076808,0.388713 3.06939,0.03851 l 0.366652,-0.129362 0.625265,0.539487 c 0.343896,0.296718 0.664133,0.539487 0.711638,0.539487 0.04751,0 0.533847,-0.224417 1.080759,-0.498704 z m 4.5839,-2.24694 C 25.023318,24.342347 25.29,24.168429 25.29,24.032174 25.29,23.872683 18.571629,5.7825123 18.181006,4.8901972 17.989951,4.4537618 17.78467,4.32 17.305942,4.32 c -0.768014,0 -0.92476,0.3735167 -0.925331,2.205 -0.0011,3.662642 1.204673,9.410909 2.847014,13.572061 0.404967,1.026054 1.815411,4.08776 2.153918,4.675595 0.09968,0.173104 1.043223,0.586747 1.367242,0.599392 0.112082,0.0044 0.729707,-0.255588 1.3725,-0.577692 z m 1.556632,-4.674453 c 0.790075,-0.27882 1.052328,-0.454591 1.051089,-0.704477 -5.4e-4,-0.110234 -0.301172,-0.989924 -0.668059,-1.954867 -0.366886,-0.964942 -0.653431,-1.768074 -0.636767,-1.784739 0.01666,-0.01666 0.550166,-0.22035 1.185559,-0.452638 L 27.765,14.800844 27.753979,14.352922 c -0.01246,-0.506215 -0.473731,-1.630103 -0.705551,-1.71906 -0.07818,-0.03 -0.655392,0.129906 -1.282702,0.355344 -0.627309,0.225437 -1.169779,0.39183 -1.205487,0.369761 -0.120035,-0.07418 -0.626718,-1.508563 -0.555588,-1.572822 0.03869,-0.03495 0.725982,-0.296182 1.52731,-0.580509 0.852991,-0.302655 1.478914,-0.574161 1.509917,-0.654953 0.112947,-0.294335 -0.519057,-1.9315218 -0.781629,-2.0247863 -0.106026,-0.03766 -1.318374,0.364796 -4.205933,1.3962154 -0.616375,0.2201659 -1.15892,0.4609199 -1.205654,0.5350089 -0.06119,0.09701 0.41319,1.454667 1.695097,4.851293 0.979037,2.594122 1.816631,4.787461 1.86132,4.874086 0.113105,0.219241 0.532683,0.198607 1.272838,-0.0626 z m 5.828248,-2.08494 c 0.625961,-0.185723 1.307516,-0.530504 1.369864,-0.692978 0.02667,-0.0695 -0.271812,-0.972506 -0.663293,-2.006676 C 31.821255,14.301139 31.516148,13.4145 31.53472,13.365 c 0.05604,-0.149362 2.107432,-0.819835 2.19986,-0.718997 0.04487,0.04895 0.393799,0.918778 0.775407,1.932956 0.381607,1.014176 0.74101,1.873117 0.798674,1.908755 0.266454,0.164677 1.241856,-0.22292 1.623189,-0.645009 0.598866,-0.662873 0.870543,0.29637 -2.250246,-7.945205 L 33.906289,5.85 33.580644,5.8519 c -0.356765,0.00208 -1.422888,0.3502431 -1.771061,0.5783748 -0.12077,0.079132 -0.219373,0.2138178 -0.219118,0.2993017 2.7e-4,0.085484 0.285254,0.9011524 0.633328,1.8125968 0.348075,0.9114446 0.600991,1.6887907 0.562035,1.7274367 -0.136721,0.135636 -2.126946,0.805167 -2.186812,0.735667 -0.03329,-0.03865 -0.334911,-0.808358 -0.670263,-1.7104596 -0.335352,-0.9021017 -0.66717,-1.6878558 -0.737375,-1.7461207 -0.0979,-0.081253 -0.238187,-0.081198 -0.602074,2.34e-4 -0.577299,0.1291939 -1.57521,0.5896178 -1.639169,0.7562928 -0.0484,0.1261289 3.385405,9.3160135 3.614052,9.6722755 0.154598,0.240884 0.29492,0.249445 0.941978,0.05746 z m 11.25897,-4.169022 C 43.519462,13.325779 43.865861,12.820038 44.01303,12.044022 44.17575,11.186003 43.805379,9.9341073 43.177928,9.2212857 42.828615,8.8244453 42.080203,8.3748552 41.76,8.369501 41.425409,8.3639066 41.380791,8.2375477 41.540737,7.7485405 41.843729,6.8221977 41.570983,5.6867495 40.860263,4.915709 39.965915,3.9454562 38.699992,3.8249638 36.72,4.521633 c -0.817104,0.2875019 -2.110686,0.9057644 -2.201056,1.0519862 -0.07734,0.1251359 3.016268,8.2940298 3.162204,8.3500308 0.06609,0.02536 0.279002,-0.09739 0.473137,-0.27278 0.611187,-0.552171 1.365166,-0.646697 2.359294,-0.295784 0.329219,0.11621 0.815219,0.357596 1.08,0.536412 0.264782,0.178817 0.525453,0.325881 0.57927,0.326812 0.05382,9.27e-4 0.320346,-0.157637 0.592286,-0.352369 z M 39.441902,11.8575 c -0.546914,-1.413961 -0.542189,-1.28663 -0.05392,-1.453001 0.53074,-0.180841 1.28125,-0.187027 1.53026,-0.01261 0.474232,0.332166 0.631629,1.273311 0.286355,1.712254 -0.197403,0.250958 -0.984492,0.67336 -1.257736,0.674982 -0.104946,6.3e-4 -0.252178,-0.268098 -0.504959,-0.921621 z M 38.067118,8.2219172 C 38.014545,8.0806127 37.851936,7.6524315 37.705765,7.2704034 37.559595,6.8883753 37.44,6.5582122 37.44,6.5367076 37.44,6.4483649 38.032493,6.3 38.385288,6.3 c 0.476261,0 0.801831,0.2793805 0.944951,0.8108894 0.170312,0.6324879 -0.173371,1.1198245 -0.921386,1.3065123 -0.213395,0.053258 -0.258866,0.027248 -0.341735,-0.1954845 z"
       id="path3402"
       inkscape:connector-curvature="0" />
  </g>
</svg>
